<svg width="20" height="20" viewBox="0 0 20 20" fill="none" xmlns="http://www.w3.org/2000/svg">
<path d="M11.6022 5.367C11.486 5.17938 11.3002 5.04549 11.0854 4.9947C10.8707 4.94392 10.6445 4.98039 10.4566 5.09611C10.2687 5.21182 10.1344 5.39735 10.0831 5.61198C10.0318 5.82661 10.0677 6.05284 10.1829 6.24103C10.3302 6.47947 10.4873 6.71384 10.6541 6.94415C10.7841 7.12241 10.9795 7.24187 11.1974 7.27631C11.4153 7.31075 11.6379 7.25738 11.8166 7.12789C11.9952 6.9984 12.1151 6.80336 12.1502 6.58555C12.1852 6.36773 12.1324 6.14492 12.0034 5.96596C11.861 5.76984 11.7273 5.57018 11.6022 5.367ZM9.32763 13.0517C9.26265 12.9637 9.18097 12.8893 9.08724 12.8328C8.9935 12.7763 8.88956 12.7388 8.78135 12.7225C8.67314 12.7062 8.56277 12.7113 8.45654 12.7376C8.35032 12.764 8.25032 12.811 8.16226 12.876C8.0742 12.9409 7.9998 13.0226 7.94331 13.1163C7.88681 13.2101 7.84934 13.314 7.83301 13.4222C7.81669 13.5304 7.82184 13.6408 7.84817 13.747C7.87451 13.8533 7.9215 13.9533 7.98648 14.0413C8.12808 14.2326 8.2591 14.4303 8.38279 14.6322C8.44008 14.7254 8.51517 14.8065 8.6038 14.8708C8.69242 14.9351 8.79284 14.9813 8.89932 15.0068C9.00579 15.0322 9.11624 15.0365 9.22436 15.0192C9.33248 15.002 9.43614 14.9637 9.52944 14.9064C9.62274 14.8491 9.70384 14.774 9.76811 14.6854C9.83239 14.5968 9.87858 14.4964 9.90405 14.3899C9.92951 14.2834 9.93376 14.173 9.91654 14.0648C9.89932 13.9567 9.86098 13.8531 9.80369 13.7598C9.65559 13.5189 9.4969 13.282 9.32763 13.0517ZM6.23846 10.1945C6.14516 10.1373 6.04152 10.0991 5.93344 10.0819C5.82537 10.0648 5.71498 10.0692 5.60858 10.0947C5.50218 10.1202 5.40185 10.1665 5.31332 10.2308C5.2248 10.2951 5.1498 10.3762 5.09263 10.4695C5.03545 10.5628 4.99721 10.6665 4.98009 10.7746C4.96297 10.8826 4.96731 10.993 4.99285 11.0994C5.01839 11.2058 5.06464 11.3062 5.12896 11.3947C5.19327 11.4832 5.2744 11.5582 5.36769 11.6154C5.56952 11.7391 5.76755 11.872 5.96177 12.0141C6.05023 12.079 6.15063 12.1257 6.25719 12.1517C6.36376 12.1777 6.47441 12.1824 6.58279 12.1655C6.69117 12.1486 6.79516 12.1105 6.88879 12.0534C6.98242 11.9963 7.06386 11.9212 7.12843 11.8326C7.193 11.7439 7.23944 11.6434 7.26508 11.5367C7.29072 11.4301 7.29506 11.3194 7.27785 11.2111C7.26064 11.1027 7.22222 10.9989 7.16479 10.9054C7.10736 10.812 7.03206 10.7308 6.94319 10.6665C6.71289 10.4988 6.47799 10.3415 6.23846 10.1945ZM14.6223 8.38864C14.4196 8.26412 14.2208 8.13093 14.0257 7.98906C13.847 7.85957 13.6242 7.80626 13.4062 7.84082C13.1882 7.87538 12.9928 7.99498 12.8629 8.1734C12.7329 8.35181 12.6791 8.57448 12.7131 8.79256C12.7471 9.01064 12.8662 9.20633 13.0443 9.33672C13.2746 9.50436 13.5098 9.66197 13.7499 9.80953C13.8431 9.86682 13.9468 9.90516 14.0549 9.92238C14.163 9.9396 14.2735 9.93535 14.38 9.90989C14.4864 9.88442 14.5869 9.83823 14.6755 9.77396C14.7641 9.70969 14.8392 9.62858 14.8965 9.53529C14.9538 9.44199 14.9921 9.33832 15.0093 9.23021C15.0266 9.12209 15.0223 9.01164 14.9969 8.90517C14.9714 8.79869 14.9252 8.69827 14.8609 8.60965C14.7967 8.52102 14.7156 8.44592 14.6223 8.38864ZM15.8275 4.16748C14.6736 3.01348 13.2035 2.22756 11.603 1.90911C10.0025 1.59066 8.34345 1.75399 6.83576 2.37843C5.32807 3.00288 4.03942 4.0604 3.13277 5.41725C2.22611 6.7741 1.74219 8.36934 1.74219 10.0012C1.74219 11.6331 2.22611 13.2284 3.13277 14.5852C4.03942 15.9421 5.32807 16.9996 6.83576 17.624C8.34345 18.2485 10.0025 18.4118 11.603 18.0933C13.2035 17.7749 14.6736 16.989 15.8275 15.835C17.3721 14.2864 18.2396 12.1885 18.2396 10.0012C18.2396 7.81399 17.3721 5.71603 15.8275 4.16748ZM14.7663 14.7737C13.7487 15.7941 12.4289 16.4586 11.0032 16.6685C10.9314 16.5345 10.8232 16.4235 10.6911 16.3482C10.559 16.2728 10.4084 16.2362 10.2565 16.2426C10.1045 16.249 9.95749 16.298 9.83218 16.3842C9.70686 16.4703 9.60836 16.59 9.54797 16.7296C7.91703 16.6261 6.37971 15.9318 5.22388 14.7765C4.06806 13.6212 3.37298 12.0842 3.2688 10.4533C3.40742 10.3919 3.5261 10.2929 3.61142 10.1676C3.69674 10.0423 3.7453 9.89562 3.75161 9.74415C3.75793 9.59268 3.72174 9.44246 3.64714 9.31049C3.57254 9.17851 3.46251 9.07003 3.32949 8.99732C3.53781 7.57129 4.20042 6.25044 5.21896 5.23086C6.2375 4.21128 7.55766 3.54732 8.98348 3.33753C9.05594 3.46289 9.15992 3.56712 9.28509 3.6399C9.41026 3.71267 9.55229 3.75146 9.69708 3.75242C9.76145 3.7523 9.8256 3.74493 9.88832 3.73044C10.0083 3.70099 10.12 3.64477 10.2151 3.566C10.3102 3.48722 10.3863 3.38794 10.4376 3.27558C12.0703 3.37736 13.6097 4.07194 14.7664 5.22878C15.9231 6.38562 16.6174 7.92507 16.719 9.55783C16.5811 9.61909 16.463 9.71768 16.378 9.84246C16.2931 9.96725 16.2447 10.1133 16.2383 10.2641C16.2319 10.4149 16.2678 10.5645 16.3418 10.696C16.4159 10.8276 16.5252 10.9358 16.6575 11.0085C16.448 12.4342 15.7849 13.7545 14.7663 14.7737Z" fill="white"/>
</svg>
