<svg width="20" height="20" viewBox="0 0 20 20" fill="none" xmlns="http://www.w3.org/2000/svg">
<path d="M9.99978 11.1784L11.2148 12.3934C10.5704 13.2237 10.1313 14.1946 9.93332 15.2268C9.73536 16.2591 9.78411 17.3235 10.0756 18.3334C8.2297 18.3521 6.43008 17.7557 4.96062 16.6384L4.72562 16.4525L9.99978 11.1784ZM12.4056 13.5842L15.2739 16.4525C14.2556 17.2875 13.053 17.8677 11.7656 18.145C11.4995 17.3891 11.4187 16.5803 11.5301 15.7867C11.6414 14.993 11.9417 14.2377 12.4056 13.5842ZM7.60562 8.78503L8.82228 10L3.54728 15.2742C2.31228 13.7666 1.64653 11.8729 1.66645 9.9242C2.67629 10.2157 3.74072 10.2645 4.77297 10.0665C5.80523 9.86853 6.7761 9.42945 7.60645 8.78503M18.1456 11.765C17.8905 12.95 17.3785 14.0646 16.6456 15.03L16.4539 15.2742L13.5848 12.4059C14.2382 11.9418 14.9935 11.6414 15.7871 11.5299C16.5808 11.4184 17.3896 11.499 18.1456 11.765ZM16.4539 4.72587C17.6881 6.23347 18.3532 8.12681 18.3331 10.075C17.3655 9.79581 16.3472 9.73922 15.3545 9.90952C14.3619 10.0798 13.4207 10.4726 12.6014 11.0584L12.3931 11.2142L11.1781 10L16.4531 4.72587H16.4539ZM9.92312 1.6667C11.7689 1.6477 13.5686 2.24377 15.0381 3.36087L15.2731 3.5467L9.99978 8.8217L8.78478 7.6067C9.4292 6.77635 9.86828 5.80548 10.0662 4.77322C10.2642 3.74097 10.2155 2.67654 9.92395 1.6667H9.92312ZM3.54728 4.72503L6.41562 7.59337C5.76219 8.05742 5.00691 8.35784 4.21326 8.46935C3.41961 8.58086 2.61079 8.50022 1.85478 8.2342C2.13168 6.94663 2.71244 5.74364 3.54728 4.72503ZM8.23395 1.8542C8.48671 2.57285 8.57223 3.33969 8.484 4.09638C8.39577 4.85306 8.13611 5.57965 7.72478 6.22087L7.59312 6.41503L4.72478 3.54753C5.74307 2.71251 6.94576 2.1323 8.23312 1.85503" fill="white"/>
</svg>
