<svg width="20" height="20" viewBox="0 0 20 20" fill="none" xmlns="http://www.w3.org/2000/svg">
<path d="M16.3042 8.01661L16.6875 7.82494V3.92911L16.2708 3.72078L15.0208 3.64161L14.6917 3.86244V3.51244L12.1917 3.35828L12.0833 3.86244L11.5083 3.92911L10.775 3.35828H8.80833L8.14583 3.84161H6.89583L6.79167 3.68744L3.45833 3.59994L3.41667 4.29578C3.48975 4.66482 3.52465 5.04041 3.52083 5.41661C3.51776 5.84166 3.44744 6.26354 3.3125 6.66661V7.34578L3.575 8.54578L3.45417 8.96244V9.31244L3.76667 9.57078V9.92078L3.45417 10.2874V11.6583L3.72917 12.0749L3.69583 13.1708L3.45417 13.6583V14.5833L3.55833 14.7583V15.1374L3.475 15.3666V15.8708L3.7875 16.1124H5.55833L5.80417 15.9916L6.02917 16.1124L6.25417 16.0083L6.48333 16.0958L7.075 16.1333L7.7 15.9583L7.76667 16.1333L8.44583 16.1666L8.60417 15.9916L9.10833 16.6166L9.525 16.2541L9.64583 16.3916L10.0625 16.3583L10.3958 16.6166L10.9542 16.2874H13.1083L13.3542 16.0624L13.65 16.1999H15.3167L15.1625 15.9416H15.5792L16.6917 16.2208V10.9374H16.25L16.6167 10.5583V9.46244L16.0792 8.62911L16.3208 8.38744L16.3042 8.01661ZM13.2417 5.70411L14.1667 6.22494L13.8708 8.08744L11.2792 6.22494L13.2417 5.70411ZM7.03333 14.3666H5.99167L5.05417 13.5833L5.85417 11.2499L8.5125 13.7874L7.03333 14.3666ZM14.2708 14.2249H12.8083L4.825 5.94994L5.8 5.53328L15.1583 11.8416L14.2708 14.2249Z" fill="white"/>
</svg>
