<svg width="20" height="20" viewBox="0 0 20 20" fill="none" xmlns="http://www.w3.org/2000/svg">
<path d="M5.83424 4.16671H19.1676V7.50004H18.3342V8.33337H13.3342C13.1132 8.33337 12.9013 8.42117 12.745 8.57745C12.5887 8.73373 12.5009 8.94569 12.5009 9.16671V10C12.5009 10.4421 12.3253 10.866 12.0128 11.1786C11.7002 11.4911 11.2763 11.6667 10.8342 11.6667H8.01758C7.70091 11.6667 7.40924 11.85 7.26758 12.1334L5.22591 16.2084C5.08424 16.4917 4.80091 16.6667 4.48424 16.6667H1.66758C1.66758 16.6667 -0.832422 16.6667 2.50091 11.6667C2.50091 11.6667 5.00091 8.33337 1.66758 8.33337V4.16671H2.50091L2.91758 3.33337H5.41758L5.83424 4.16671ZM11.6676 10V9.16671C11.6676 8.94569 11.5798 8.73373 11.4235 8.57745C11.2672 8.42117 11.0553 8.33337 10.8342 8.33337H10.0009C10.0009 8.33337 9.16758 9.16671 10.0009 10C9.55888 10 9.13496 9.82445 8.8224 9.51188C8.50984 9.19932 8.33424 8.7754 8.33424 8.33337C8.11323 8.33337 7.90127 8.42117 7.74499 8.57745C7.58871 8.73373 7.50091 8.94569 7.50091 9.16671V10C7.50091 10.2211 7.58871 10.433 7.74499 10.5893C7.90127 10.7456 8.11323 10.8334 8.33424 10.8334H10.8342C11.0553 10.8334 11.2672 10.7456 11.4235 10.5893C11.5798 10.433 11.6676 10.2211 11.6676 10Z" fill="white"/>
</svg>
