<svg width="20" height="20" viewBox="0 0 20 20" fill="none" xmlns="http://www.w3.org/2000/svg">
<path d="M17.1593 5.75006C17.1418 5.72093 17.1223 5.69308 17.1009 5.66672C16.0231 3.89279 14.322 2.58497 12.3306 1.99927C10.3392 1.41357 8.20091 1.59215 6.33427 2.50006H6.27593C4.98807 3.16326 3.89533 4.15072 3.10549 5.36505C2.31566 6.57938 1.85601 7.97863 1.77188 9.42478C1.68775 10.8709 1.98205 12.314 2.62575 13.6118C3.26946 14.9095 4.24032 16.017 5.4426 16.8251L5.7176 16.9917L5.80093 17.0501C7.05979 17.8483 8.5109 18.2917 10.0009 18.3334H10.1759C11.6312 18.3013 13.0527 17.8886 14.2989 17.1364C15.5451 16.3841 16.5725 15.3186 17.2788 14.0458C17.9852 12.7731 18.3458 11.3375 18.3248 9.88201C18.3038 8.42653 17.902 7.00194 17.1593 5.75006ZM15.8343 6.71672C16.0569 7.10223 16.2384 7.51001 16.3759 7.93339C15.5683 7.67068 14.7252 7.53297 13.8759 7.52506C13.7906 7.50842 13.7029 7.50842 13.6176 7.52506C12.5938 7.53863 11.5817 7.74501 10.6343 8.13339C10.0568 7.77152 9.53948 7.32165 9.10093 6.80006C10.1194 6.20279 11.2759 5.88101 12.4566 5.8664C13.6372 5.85179 14.8013 6.14484 15.8343 6.71672ZM10.0009 3.33339C11.1718 3.32734 12.3228 3.63525 13.3343 4.22506C13.058 4.18769 12.7797 4.16821 12.5009 4.16672C10.9714 4.16965 9.47226 4.59346 8.1676 5.39172C7.92147 4.87784 7.74223 4.33452 7.63427 3.77506C8.3894 3.48398 9.19164 3.33427 10.0009 3.33339ZM5.00093 5.59172C5.33348 5.22211 5.70509 4.88961 6.10927 4.60006C6.38751 5.66242 6.87507 6.65853 7.54333 7.52999C8.2116 8.40146 9.04713 9.13073 10.0009 9.67506C9.9415 10.5086 9.72372 11.3231 9.35927 12.0751C8.08259 11.6039 6.98069 10.7532 6.20159 9.63748C5.42249 8.52172 5.00351 7.19424 5.00093 5.83339C5.00093 5.75006 5.00093 5.67506 5.00093 5.59172ZM3.33427 10.0001C3.33576 9.33049 3.43686 8.66487 3.63427 8.02506C3.96372 9.23492 4.56195 10.3548 5.38438 11.3014C6.20682 12.2479 7.23225 12.9966 8.38427 13.4917C7.72102 14.2689 6.88474 14.8797 5.9426 15.2751C5.13319 14.654 4.47712 13.8555 4.02491 12.9409C3.5727 12.0264 3.33642 11.0203 3.33427 10.0001ZM9.88427 16.6667C9.14126 16.6559 8.4056 16.5178 7.70927 16.2584C8.80234 15.5847 9.72381 14.666 10.4009 13.5751C11.1683 12.3521 11.6048 10.9508 11.6676 9.50839C12.1485 9.3503 12.6464 9.24961 13.1509 9.20839C13.5069 10.6378 13.3795 12.1449 12.7885 13.4942C12.1975 14.8435 11.1763 15.9591 9.88427 16.6667ZM13.4009 15.7334C14.4418 14.3118 15.0023 12.5953 15.0009 10.8334C14.9973 10.3078 14.9471 9.7835 14.8509 9.26672C15.4776 9.37746 16.086 9.57374 16.6593 9.85006C16.6593 9.90006 16.6593 9.95006 16.6593 10.0001C16.6585 11.1548 16.3578 12.2895 15.7866 13.2931C15.2154 14.2967 14.3934 15.1347 13.4009 15.7251V15.7334Z" fill="white"/>
</svg>
