<?xml version="1.0" encoding="UTF-8"?>
<svg xmlns="http://www.w3.org/2000/svg" width="64" height="64" viewBox="0 0 64 64" fill="none">
  <rect width="64" height="64" fill="#121212"></rect>
  <path fill-rule="evenodd" clip-rule="evenodd" d="M51.4132 30.9936C53.8183 32.4203 55.0004 34.54 55.0004 37.3935C55.0004 39.9209 54.1444 41.9591 52.3915 43.4674C50.6387 44.9756 48.3151 45.7501 45.4209 45.7501H33.3955V17.2153H44.6464C50.3533 17.2153 54.0629 20.3134 54.0629 25.3274C54.0629 27.7324 53.166 29.6076 51.4132 30.9936ZM44.4425 23.7376H40.6923V28.2216H44.4425C45.747 28.2216 46.7661 27.4063 46.7661 25.9796C46.7661 24.6344 45.7878 23.7376 44.4425 23.7376ZM40.6923 39.2279H45.2171C46.6846 39.2279 47.7037 38.2496 47.7037 36.8228C47.7037 35.3553 46.6846 34.4177 45.2171 34.4177H40.6923V39.2279Z" fill="#F8E800"></path>
  <path fill-rule="evenodd" clip-rule="evenodd" d="M28.8868 31.1545C31.2919 32.5812 32.4741 34.7009 32.4741 37.5544C32.4741 40.0818 31.618 42.12 29.8652 43.6282C28.1123 45.1365 25.7888 45.911 22.8945 45.911H10.8691V17.3762H22.12C27.827 17.3762 31.5365 20.4743 31.5365 25.4883C31.5365 27.8933 30.6397 29.7685 28.8868 31.1545ZM21.9162 23.8985H18.1659V28.3825H21.9162C23.2206 28.3825 24.2397 27.5672 24.2397 26.1405C24.2397 24.7953 23.2614 23.8985 21.9162 23.8985ZM18.1659 39.3888H22.6907C24.1582 39.3888 25.1773 38.4104 25.1773 36.9837C25.1773 35.5162 24.1582 34.5786 22.6907 34.5786H18.1659V39.3888Z" fill="#FF0025"></path>
</svg>
