<svg width="32" height="32" viewBox="0 0 32 32" fill="none" xmlns="http://www.w3.org/2000/svg">
<rect width="32" height="32" fill="#F0F0F0"/>
<path d="M7.5 4.5H13.8071L16.25 13.906L18.6929 4.5H25V20H21.047V8.16524L18.0267 19.9558H14.4734L11.453 8.16524V19.9558H7.5V4.5Z" fill="#CB2129"/>
<path d="M9.0228 23.9268H9.84462C10.5939 23.9268 11.1499 24.0488 11.5124 24.3171C11.875 24.5854 12.0684 25 12.0684 25.561C12.0684 26.0244 11.8992 26.3659 11.5608 26.6098C11.2224 26.8537 10.739 26.9756 10.1347 26.9756H7.5V22H11.6816V23.0244H9.04697V23.9268H9.0228ZM9.0228 25.9268H9.79628C10.2797 25.9268 10.5214 25.7561 10.5214 25.3902C10.5214 25.0732 10.2797 24.9268 9.79628 24.9268H9.0228V25.9268Z" fill="#013D79"/>
<path d="M14.1472 22H18.2563V23.0732H15.67V23.878H18.0629V24.9024H15.67V25.878H18.3288V27H14.1472V22Z" fill="#013D79"/>
<path d="M20.3349 22H25V23.2439H23.4289V27H21.9061V23.2195H20.3349V22Z" fill="#013D79"/>
</svg>
