<svg width="64" height="64" viewBox="0 0 64 64" fill="none" xmlns="http://www.w3.org/2000/svg">
<rect width="64" height="64" fill="#F42525"/>
<path d="M11.2697 18.8C11.0097 18.61 10.6497 18.71 10.5297 19L7.18972 26.99C6.56972 28.47 6.90972 30.17 8.04972 31.3L14.0097 37.21L8.21972 37.2C7.86972 37.2 7.62972 37.56 7.76972 37.88L11.3597 46.38C11.7997 47.42 12.6597 48.22 13.7297 48.57L30.7597 54.27C31.5697 54.54 32.4397 54.54 33.2397 54.27L50.2697 48.57C51.3397 48.21 52.1997 47.41 52.6397 46.38L56.2297 37.88C56.3697 37.56 56.1297 37.2 55.7797 37.2L49.9897 37.21L55.9497 31.3C57.0897 30.17 57.4297 28.47 56.8097 26.99L53.4697 19C53.3497 18.71 52.9797 18.61 52.7297 18.8L48.7197 21.78L48.6797 16.69C48.6697 15.12 47.7297 13.71 46.2797 13.1L37.8997 9.55997C37.5797 9.41997 37.2197 9.65997 37.2197 10.01V13.35C37.2197 14.57 37.7897 15.72 38.7597 16.47L47.4097 23.11V37.21L31.9997 50.63L16.5997 37.21V23.11L25.2497 16.47C26.2197 15.73 26.7897 14.57 26.7897 13.35V10.01C26.7897 9.65997 26.4297 9.41997 26.1097 9.55997L17.7297 13.1C16.2897 13.71 15.3397 15.12 15.3297 16.69L15.2897 21.78L11.2697 18.8Z" fill="#FFCC00"/>
</svg>
