<svg width="64" height="64" viewBox="0 0 64 64" fill="none" xmlns="http://www.w3.org/2000/svg">
<rect width="64" height="64" fill="#12192D"/>
<path d="M37.548 24.783L35.0813 24.798L37.2805 9.58398L39.6697 10.0945L37.548 24.783Z" fill="#0461A6"/>
<path d="M24.5479 54.7597L26.9208 54.9346C27.5042 53.1333 28.0691 51.2668 28.6571 49.4552C30.8885 49.4552 33.4287 49.453 35.66 49.4552L39.1904 49.1638L39.4798 49.0472C39.2889 48.6 39.6003 48.4802 39.7113 48.9889C39.7674 48.9928 39.7444 49.4479 39.8005 49.4552C39.8609 49.463 39.9403 49.5625 40.0007 49.5718C40.0866 49.585 40.2043 49.621 40.2901 49.6301C40.3716 49.6388 40.4983 49.6322 40.5794 49.6301C41.2473 49.6139 41.7705 49.4331 42.4315 49.3386C43.7834 49.1453 45.2338 49.0342 46.4827 48.4643C47.3555 48.0656 48.0454 47.5854 48.8556 47.0653C49.7272 46.5058 50.336 45.7455 50.9392 44.9085C51.4449 44.2065 51.8513 43.4826 52.2124 42.6934C52.8038 41.3981 52.9532 40.2243 52.9069 38.7879C52.8698 37.6362 52.6049 36.6835 52.0308 35.6985C51.9903 35.6286 51.9184 35.6436 51.8652 35.5819L51.8073 35.4268L51.5758 35.1739L52.5597 34.4744L55.2869 26.0173L58 26.0255L54.6432 36.8654H53.76C53.9186 37.1114 54.0448 37.299 54.1629 37.4914C54.5634 38.1431 54.8643 38.8344 54.9245 39.6086C54.9743 40.2509 55.0542 40.898 55.0275 41.5381C54.9963 42.2843 54.811 43.0104 54.5807 43.7297C54.3018 44.5984 53.9336 45.4156 53.4441 46.1768C52.5516 47.5653 51.4196 48.7147 49.9808 49.5229C49.2018 49.9612 48.4008 50.3786 47.5697 50.6992C46.9257 50.9469 46.242 51.0949 45.5623 51.2424L45.2998 51.2994C43.9048 51.6065 42.4927 51.5845 41.0814 51.5624C40.7766 51.5576 40.4717 51.5528 40.1671 51.5512C40.0449 51.5505 39.9227 51.5505 39.8005 51.5512L30.538 51.5676L28.7787 57.0003L24.3743 56.5668L24.5479 54.7597Z" fill="#0461A6"/>
<path d="M7.64941 34.8824L25.5318 36.398L25.3003 38.3799L7.64941 36.8796V34.8824Z" fill="#0461A6"/>
<path d="M25.1846 23.1076C25.8212 20.0764 27.9626 18.9106 30.2776 18.6774L30.8564 17.1619C25.3582 14.7719 18.9919 22.9327 25.1846 23.1076Z" fill="#0461A6"/>
<path fill-rule="evenodd" clip-rule="evenodd" d="M6 35.1349L25.3119 36.7192L22.6902 54.8267L27.0828 55.1939C27.6675 53.3928 28.2531 51.5858 28.84 49.774H29.252C32.6899 49.7751 36.1277 49.774 39.5655 49.7833C41.9008 49.792 44.3197 49.7221 46.4816 48.7352C48.2786 47.9144 50.0408 46.8073 51.2135 45.1794C52.5492 43.3264 53.3958 41.115 53.3214 38.8036C53.2786 37.4745 52.8864 36.2215 52.0296 35.2048L52.9613 35.0053L56.1363 24.3813L35.6462 24.3777L37.9369 8.40948C33.808 7.19356 28.1225 6.44306 23.8511 7.51416C21.0806 8.21024 18.5023 9.46715 16.2914 11.296C12.4654 14.4602 9.41918 20.1843 10.4136 25.3256C10.7791 27.215 11.7036 28.6773 12.8965 30.123C10.564 30.3316 8.31039 30.5322 6 30.7385V35.1349ZM28.9465 22.2944C28.4245 22.4611 27.8955 22.6057 27.3631 22.7339C26.5486 22.9304 23.4226 23.4719 23.4125 21.9806C23.3905 18.1364 27.6732 16.1704 30.7499 17.2336L28.9465 22.2944Z" fill="#16AFE7"/>
<path d="M49.0016 34.3226C49.7424 34.6875 50.3826 35.1013 50.9115 35.6656C51.5065 36.301 51.944 37.0296 52.0343 37.9121C52.1049 38.6116 52.1825 39.3228 52.1304 40.02C52.0864 40.6169 51.8862 41.2068 51.7137 41.7874C51.3896 42.8739 50.8548 43.866 50.1105 44.7089C49.5619 45.3303 48.931 45.8899 48.2828 46.4087C47.3985 47.1163 46.3729 47.5862 45.308 47.9499C44.7744 48.1318 44.2153 48.246 43.662 48.3638C41.3667 48.8546 39.039 48.6086 36.7239 48.6354C33.9112 48.6669 31.0973 48.6342 28.2834 48.6307C28.1931 48.6307 28.1028 48.6424 27.9998 48.6506C27.4245 50.425 26.8538 52.1877 26.2647 54.0052C25.5354 53.9411 24.7981 53.877 24.0017 53.8082C24.0434 53.5144 24.0805 53.2463 24.121 52.977C24.1673 52.6738 24.2194 52.3707 24.2622 52.0664C24.4451 50.7852 24.6199 49.5028 24.8108 48.2227C24.9636 47.1968 25.1396 46.1744 25.2924 45.1484C25.3954 44.4594 25.466 43.7658 25.5679 43.0756C25.6755 42.3504 25.8051 41.63 25.9197 40.906C25.9718 40.5749 26.0112 40.2415 26.0552 39.908C26.1478 39.1992 26.2288 38.4904 26.3318 37.7839C26.4325 37.0984 26.5552 36.4164 26.6779 35.6796C26.48 35.6388 26.2901 35.5782 26.0957 35.5642C25.253 35.5035 24.4092 35.4627 23.5677 35.4033C22.5016 35.3275 21.4344 35.2471 20.3695 35.1561C18.6425 35.0081 16.9178 34.8414 15.1908 34.698C13.7844 34.5814 12.3769 34.4881 10.9705 34.3832C9.79794 34.2958 8.62654 34.2071 7.45398 34.1162C7.35675 34.1081 7.26068 34.0754 7.16113 34.0544C7.16113 33.2908 7.16113 32.5552 7.16113 31.7904C10.1938 31.5258 13.1999 31.2623 16.2059 31C16.2071 30.9697 16.2094 30.9393 16.2105 30.909C15.0901 30.4077 14.0888 29.7362 13.2797 28.8047C12.6107 28.0341 12.128 27.1644 11.7993 26.1851C11.371 24.9097 11.3664 23.6086 11.4752 22.3064C11.5354 21.5778 11.7611 20.8631 11.9254 20.145C12.2704 18.6317 12.9475 17.256 13.752 15.9503C14.5727 14.6189 15.5901 13.4473 16.7685 12.4155C18.0325 11.3092 19.4377 10.4278 20.9587 9.74113C21.6022 9.45084 22.2771 9.2235 22.9519 9.01598C23.6915 8.78865 24.4381 8.56131 25.1986 8.4354C26.0922 8.28618 27.002 8.18708 27.906 8.17193C29.0392 8.15211 30.1782 8.19174 31.3056 8.2955C32.2421 8.38177 33.1681 8.59629 34.0975 8.75367C34.6346 8.84461 35.1729 8.92621 35.7065 9.03114C36.026 9.09409 36.3373 9.19319 36.6672 9.28063C36.5966 9.81457 36.5341 10.3135 36.4647 10.8114C36.3558 11.5936 36.247 12.3747 36.1301 13.1558C36.0213 13.8821 35.8963 14.6061 35.7863 15.3313C35.7273 15.7241 35.6938 16.1205 35.6359 16.5134C35.5271 17.2572 35.4078 17.9987 35.2956 18.7425C35.247 19.0654 35.2018 19.3895 35.1601 19.7136C35.0664 20.4446 34.9854 21.1767 34.8812 21.9065C34.7434 22.8718 34.5872 23.836 34.4425 24.8001C34.4078 25.0298 34.3881 25.2606 34.3568 25.5299C41.1514 25.5299 47.8985 25.5299 54.6977 25.5299C54.6329 25.7946 54.5901 26.0184 54.5218 26.2341C54.2857 26.9767 54.0391 27.7158 53.7995 28.4573C53.5101 29.3503 53.2161 30.241 52.9372 31.1375C52.7832 31.6307 52.6628 32.1355 52.5182 32.631C52.4012 33.0332 52.2867 33.4377 52.1327 33.8259C52.0957 33.9204 51.9128 33.995 51.7901 34.009C50.9578 34.1034 50.1233 34.178 49.2899 34.2619C49.2135 34.2666 49.1359 34.2923 49.0016 34.3226ZM34.248 9.94165C33.4968 9.79942 32.793 9.62921 32.0812 9.54177C31.1031 9.42286 30.118 9.33775 29.133 9.29462C28.516 9.2678 27.8956 9.3564 27.2763 9.37039C26.1524 9.39488 25.062 9.60589 23.9751 9.88103C22.299 10.3054 20.7376 10.9897 19.2895 11.9305C16.8981 13.4834 15.0646 15.5411 13.8515 18.1397C13.2496 19.4291 12.8549 20.7827 12.657 22.2015C12.4556 23.6471 12.5204 25.0531 13.1061 26.4008C13.5286 27.3731 14.1525 28.1903 15.0021 28.8385C15.8506 29.4856 16.765 29.9764 17.7963 30.255C18.639 30.4823 19.4689 30.7458 20.3625 30.6199C20.7954 30.5581 21.2341 30.5371 21.6694 30.501C22.7146 30.4124 23.7598 30.3238 24.8051 30.2363C25.8017 30.1536 26.7983 30.0731 27.8389 29.988C28.4165 28.1775 28.9906 26.3786 29.552 24.6182C28.5623 24.8083 27.597 25.0041 26.627 25.179C25.4301 25.3947 24.246 25.334 23.1081 24.8817C22.2192 24.5285 21.5548 23.9211 21.2608 22.9744C21.0952 22.4405 21.0374 21.9089 21.1161 21.3318C21.233 20.4795 21.4413 19.6681 21.836 18.9138C22.9889 16.7069 24.7923 15.3522 27.208 14.8241C28.4906 14.5432 29.7685 14.6539 31.0348 14.9256C31.5186 15.0293 31.9886 15.1984 32.5164 15.3522C33.0894 13.5639 33.6635 11.7708 34.248 9.94165ZM28.369 47.4882C28.5646 47.4882 28.6653 47.4882 28.7661 47.4882C32.7456 47.4929 36.7251 47.4976 40.7046 47.5022C41.6109 47.5034 42.5092 47.4486 43.4028 47.2597C44.2778 47.0744 45.1344 46.8412 45.9412 46.4565C47.6092 45.6602 49.0259 44.5632 49.9531 42.9159C50.6569 41.6661 51.0863 40.3324 51.018 38.8751C50.9601 37.6393 50.4694 36.6461 49.4403 35.9116C48.4773 35.2249 47.38 34.9358 46.2583 34.8379C45.0615 34.7329 43.8449 34.7784 42.6411 34.8367C41.5438 34.8903 40.4523 35.0535 39.3573 35.1596C38.4567 35.2471 37.5562 35.324 36.6545 35.3998C35.5514 35.4931 34.4471 35.5805 33.3428 35.6703C32.9412 35.7029 32.5395 35.7355 32.1367 35.7694C30.8785 39.683 29.6342 43.5536 28.369 47.4882ZM34.7863 26.6864C34.4263 27.8149 34.0698 28.9353 33.7051 30.0801C34.4622 30.1699 35.1462 30.2608 35.8338 30.3319C36.7135 30.424 37.5955 30.4987 38.4764 30.5838C39.3144 30.6642 40.1513 30.7493 40.9894 30.8298C41.8992 30.9172 42.8101 31.007 43.7211 31.0851C44.4225 31.1457 45.1251 31.1853 45.8266 31.2436C46.2722 31.2809 46.7167 31.3334 47.1624 31.3812C48.2585 31.4966 49.3547 31.6132 50.4497 31.7298C50.7935 31.7659 51.1361 31.8044 51.5331 31.8487C52.0714 30.1361 52.6084 28.427 53.1548 26.6876C47.0073 26.6864 40.9211 26.6864 34.7863 26.6864ZM29.9884 23.1073L32.1298 16.4038C31.5059 16.2185 30.6806 15.9876 30.0416 15.906C28.5785 15.7195 27.1398 15.8104 25.7855 16.5041C24.797 17.0101 23.9624 17.6932 23.3281 18.6037C22.6949 19.5131 22.2979 20.5274 22.2215 21.6407C21.9887 25.0214 26.9848 24.0547 29.0103 23.4816C29.3726 23.3801 29.6492 23.2309 29.9884 23.1073Z" fill="#FAFBFA"/>
<path d="M34.2477 9.94052C33.6631 11.7685 33.089 13.5616 32.5183 15.3488C31.9905 15.1949 31.5206 15.0259 31.0367 14.9221C29.7692 14.6505 28.4925 14.5409 27.21 14.8207C24.7931 15.3488 22.9909 16.7035 21.838 18.9104C21.4433 19.6658 21.2338 20.4761 21.118 21.3283C21.0393 21.9054 21.0972 22.437 21.2627 22.971C21.5567 23.9176 22.2211 24.525 23.1101 24.8782C24.2479 25.3306 25.4321 25.3912 26.6289 25.1755C27.5989 25.0007 28.5654 24.8048 29.554 24.6148C28.9926 26.3752 28.4184 28.174 27.8408 29.9846C26.7991 30.0697 25.8025 30.1501 24.807 30.2329C23.7618 30.3192 22.7165 30.4078 21.6713 30.4975C21.2349 30.5348 20.7962 30.5558 20.3645 30.6164C19.4709 30.7435 18.6409 30.48 17.7983 30.2515C16.7669 29.9729 15.8525 29.4833 15.0041 28.8351C14.1544 28.1869 13.5305 27.3696 13.1081 26.3973C12.5224 25.0485 12.4575 23.6436 12.6589 22.198C12.8569 20.7792 13.2516 19.4268 13.8535 18.1363C15.0666 15.5377 16.9001 13.48 19.2915 11.9271C20.7395 10.9863 22.301 10.3031 23.9771 9.87757C25.064 9.60243 26.1543 9.39142 27.2783 9.36693C27.8976 9.35294 28.518 9.26434 29.1349 9.29116C30.12 9.33429 31.105 9.41823 32.0831 9.53831C32.7927 9.62808 33.4953 9.79946 34.2477 9.94052Z" fill="#EC3741"/>
<path d="M28.3691 47.4884C29.6343 43.5525 30.8786 39.6831 32.1368 35.7683C32.5385 35.7357 32.9413 35.7018 33.343 35.6692C34.4472 35.5794 35.5503 35.492 36.6546 35.3987C37.5563 35.323 38.4568 35.246 39.3574 35.1586C40.4524 35.0525 41.5439 34.8893 42.6412 34.8356C43.845 34.7773 45.0604 34.733 46.2585 34.8368C47.3801 34.9347 48.4786 35.2239 49.4404 35.9105C50.4695 36.645 50.9603 37.6383 51.0181 38.8741C51.0864 40.3313 50.657 41.6651 49.9532 42.9148C49.0272 44.5621 47.6093 45.6592 45.9413 46.4554C45.1345 46.8402 44.2791 47.0733 43.4029 47.2587C42.5081 47.4475 41.6111 47.5023 40.7047 47.5012C36.7252 47.4953 32.7457 47.4918 28.7662 47.4872C28.6643 47.4883 28.5636 47.4884 28.3691 47.4884ZM36.9984 43.2716C38.0297 43.2716 38.9974 43.2809 39.9651 43.2646C40.1804 43.2611 40.4026 43.1876 40.6075 43.1083C41.5856 42.7353 42.3102 42.0778 42.6493 41.0716C42.7813 40.6799 42.823 40.2404 42.6308 39.8277C42.3102 39.1364 41.6863 38.9149 41.0161 38.8741C40.1723 38.8216 39.3227 38.8612 38.4001 38.8612C37.9406 40.3115 37.4764 41.7711 36.9984 43.2716Z" fill="#0461A6"/>
<path d="M34.7854 26.6865C40.9202 26.6865 47.0064 26.6865 53.1528 26.6865C52.6064 28.4259 52.0693 30.135 51.5311 31.8476C51.1341 31.8045 50.7914 31.766 50.4477 31.7287C49.3515 31.6121 48.2553 31.4956 47.1603 31.3801C46.7147 31.3335 46.2702 31.2799 45.8246 31.2426C45.1231 31.1843 44.4205 31.1446 43.7191 31.084C42.8081 31.0059 41.8983 30.915 40.9873 30.8287C40.1493 30.7483 39.3124 30.6632 38.4744 30.5827C37.5935 30.4976 36.7115 30.423 35.8318 30.3309C35.1454 30.2598 34.4601 30.17 33.7031 30.0791C34.0689 28.9354 34.4254 27.8139 34.7854 26.6865Z" fill="#0461A6"/>
<path d="M36.998 43.2721C37.4749 41.7717 37.9391 40.3121 38.4009 38.863C39.3235 38.863 40.1731 38.8233 41.0169 38.8758C41.6883 38.9166 42.311 39.1381 42.6316 39.8295C42.8226 40.241 42.7821 40.6805 42.6502 41.0734C42.311 42.0795 41.5864 42.737 40.6083 43.1101C40.4034 43.1882 40.1812 43.2616 39.9659 43.2663C38.9971 43.2815 38.0294 43.2721 36.998 43.2721ZM38.5688 42.1366C39.2714 42.1611 39.9046 42.2217 40.4868 41.9C41.0285 41.5992 41.4707 41.2063 41.5772 40.5488C41.6177 40.3005 41.5459 40.1256 41.2519 40.1139C40.6442 40.0883 40.0365 40.0475 39.4277 40.0288C39.3478 40.0265 39.2147 40.1034 39.1915 40.1734C38.9785 40.8076 38.7841 41.4488 38.5688 42.1366Z" fill="#FAFBFA"/>
<path d="M38.5693 42.1352C38.7846 41.4474 38.9779 40.8062 39.1909 40.172C39.2141 40.1032 39.3472 40.0251 39.4271 40.0274C40.0359 40.046 40.6424 40.0868 41.2513 40.1125C41.5453 40.1253 41.6171 40.299 41.5765 40.5474C41.4701 41.2049 41.0279 41.5989 40.4862 41.8985C39.9051 42.2203 39.2719 42.1597 38.5693 42.1352Z" fill="#16AFE7"/>
<path d="M32.3935 31.0945L50.1092 32.968L31.2777 34.7027L25.3547 52.7788L27.9672 34.6269L8.31152 32.9213L28.7022 31.0653L35.138 10.9443L32.3935 31.0945Z" fill="#F5EC11"/>
</svg>
