<svg width="64" height="64" viewBox="0 0 64 64" fill="none" xmlns="http://www.w3.org/2000/svg">
<rect width="64" height="64" fill="#AA182C"/>
<path d="M59.3923 38.9883C61.3317 44.4516 58.475 50.453 53.0121 52.3924C47.5487 54.3316 41.5474 51.4754 39.6076 46.012C37.6683 40.5485 40.525 34.5471 45.9883 32.6079C51.4514 30.6681 57.4526 33.5248 59.3923 38.9883Z" fill="#E8E012"/>
<path d="M46.5913 45.3511C46.7538 44.9566 46.7636 44.5466 46.6213 44.1207C46.4821 43.7051 46.2312 43.3933 45.8735 43.2054C45.5129 43.0076 45.1324 42.9844 44.7403 43.1317C44.1816 43.3424 43.82 43.8744 43.7365 44.4168L44.2069 45.8224C44.5995 46.2057 45.194 46.3675 45.7519 46.1568C46.1439 46.0089 46.4258 45.7364 46.5913 45.3511ZM44.5255 46.776L44.7328 47.3956L43.7907 47.75L41.625 41.2742L42.5666 40.9193L43.4208 43.4732C43.6139 42.8479 44.0357 42.4075 44.6987 42.1583C45.2995 41.9311 45.8737 41.9753 46.4213 42.2906C46.9683 42.6048 47.3488 43.0972 47.5716 43.7633C47.7972 44.4392 47.7943 45.0753 47.557 45.6852C47.3191 46.2961 46.8998 46.7144 46.298 46.941C45.636 47.1904 45.0469 47.1309 44.5255 46.776Z" fill="#AA182C"/>
<path d="M51.6452 41.7077C51.5437 41.433 51.3647 41.2199 51.0894 41.0731C50.8148 40.9262 50.5076 40.9175 50.1586 41.0489C49.4704 41.3085 49.1894 41.9662 49.3267 42.5814L51.6452 41.7077ZM48.5631 41.4727C48.8214 40.8649 49.267 40.4364 49.9203 40.1907C50.3566 40.026 50.7716 40.0052 51.1691 40.1366C51.9665 40.3783 52.4868 41.0257 52.7626 41.8489L52.849 42.108L49.5718 43.3431C49.9416 44.0684 50.7211 44.2847 51.5929 43.956C52.0899 43.7691 52.4965 43.4596 52.8339 43.0305L53.1154 43.8726C52.8227 44.3161 52.3485 44.6612 51.6864 44.911C51.0239 45.1603 50.3915 45.149 49.7808 44.8786C49.1796 44.6056 48.7607 44.1174 48.5218 43.4048C48.2966 42.729 48.3049 42.0807 48.5631 41.4727Z" fill="#AA182C"/>
<path d="M53.9263 39.8069L53.0108 40.1514L52.7172 39.2728L53.6325 38.9276L53.1894 37.6049L54.131 37.25L54.5737 38.5727L55.925 38.0638L56.2191 38.9425L54.8673 39.4519L55.5821 41.5886C55.7559 42.1067 56.0446 42.2376 56.4985 42.0666C56.7333 41.978 56.9242 41.8436 57.0876 41.6576L57.375 42.5179C57.2241 42.7408 56.9265 42.9366 56.4995 43.0978C55.6971 43.3996 55.0336 43.1184 54.737 42.2304L53.9263 39.8069Z" fill="#AA182C"/>
<path d="M28.5465 48.226V23.7898H19.2422V17.7053H44.7617V23.7898H35.5002V48.2217H28.5465V48.226Z" fill="white"/>
</svg>
