<svg width="64" height="64" viewBox="0 0 64 64" fill="none" xmlns="http://www.w3.org/2000/svg">
<g clip-path="url(#clip0_4316_194)">
<rect width="64" height="64" fill="#F0F0F0"/>
<path d="M64 64.0002H49.8664H14.1336H0V0.000244141L14.1336 0.000247955H64V14.1338V64.0002Z" fill="#2D2D2C"/>
<path d="M51.5579 31.9717C51.5579 14.9126 38.2032 0.950031 21.3721 0.00019475H14.7042L0.000976562 0V64.0002H14.1533H19.5484C37.2153 64.0002 51.5579 49.6576 51.5579 31.9717Z" fill="#F47722"/>
<path d="M20.5902 18.8064H63.999V15.197L20.5902 15.197C11.0538 15.197 3.28418 22.9477 3.28418 32.503C3.28418 42.0584 11.0348 49.8091 20.5902 49.8091H63.999V46.1997H20.5902C13.0485 46.1997 6.91255 40.0637 6.91255 32.522C6.91255 24.9803 13.0485 18.8064 20.5902 18.8064Z" fill="white"/>
<path d="M6.76367 32.4832C6.76367 40.1199 12.9566 46.3128 20.5933 46.3128C20.5933 46.3128 41.7177 46.3128 64.0008 46.3128V18.6536C41.7177 18.6536 20.5933 18.6536 20.5933 18.6536C12.9566 18.6536 6.76367 24.8465 6.76367 32.4832Z" fill="#2D2D2C"/>
<path d="M13.5249 25.5511C13.392 25.1712 13.335 24.8293 13.335 24.5633C13.335 24.1074 13.4679 23.8034 13.8289 23.5375C14.1328 23.3285 14.7217 23.3665 15.3486 23.3475C16.4124 23.3285 16.8494 23.2905 17.2103 24.2404C17.2103 24.2404 20.0218 35.5434 20.0978 35.9423C20.1738 36.3413 20.2498 36.6832 20.3068 36.9492C20.3638 36.6452 20.4207 36.3223 20.4967 35.9803C20.5727 35.6194 23.2702 28.0967 23.2702 28.0967C23.4032 27.5268 23.7642 27.2608 24.1821 27.0709C24.2961 27.0139 24.429 26.9569 24.6 26.9569C25.0179 26.9569 25.7588 26.9569 26.0628 26.9569C26.3097 26.9569 26.5567 26.9379 26.7466 27.0329C27.1646 27.2228 27.5065 27.5648 27.6395 28.1347C27.6395 28.1347 30.527 35.6764 30.603 36.0373C30.679 36.3983 30.736 36.7022 30.774 36.9302C30.8119 36.7212 30.8689 36.4363 30.9259 36.1133C31.0019 35.7524 33.9084 24.2404 33.9084 24.2404C34.3073 23.3095 34.6683 23.4045 35.7701 23.4045C36.397 23.4045 36.7389 23.3475 37.0809 23.5565C37.4988 23.8034 37.5938 24.1644 37.5938 24.5823C37.5938 24.7153 37.5748 24.8863 37.5558 25.0572C37.5368 25.2282 37.4798 25.4182 37.4038 25.6081L33.0156 40.5396C32.8636 41.0145 32.5976 41.2804 32.2177 41.4324C32.0847 41.4894 31.9327 41.5274 31.7808 41.5274C31.3628 41.5274 29.8241 41.5274 29.8241 41.5274C29.5012 41.5274 29.3492 41.5084 29.1592 41.4134C28.7223 41.1854 28.5133 40.8815 28.3804 40.4446C28.3804 40.4446 25.4929 31.8011 25.4739 31.6491C25.4549 31.7821 22.4914 40.5206 22.4914 40.5206C22.3584 41.0145 22.0925 41.2424 21.6745 41.4324C21.5415 41.4894 21.3896 41.5084 21.2946 41.5084C20.8767 41.5084 19.205 41.5084 19.205 41.5084C19.015 41.5084 18.787 41.4324 18.673 41.3754C18.2931 41.1854 18.0651 40.8625 17.9132 40.4256L13.5249 25.5511Z" fill="white"/>
<path d="M44.3977 25.3409C44.3977 25.9108 43.9228 26.3857 43.3529 26.3857H41.7382C41.1683 26.3857 40.6934 25.9298 40.6934 25.3409V24.1061C40.6934 23.5362 41.1683 23.0613 41.7382 23.0613H43.3529C43.9228 23.0613 44.3977 23.5172 44.3977 24.1061V25.3409Z" fill="white"/>
<path d="M61.0182 31.2867C60.9232 30.5648 60.6573 29.8809 60.2014 29.292C59.7644 28.7411 59.2325 28.3232 58.6246 28.0382C58.0168 27.7533 57.2379 27.6013 56.326 27.6013C55.3762 27.6013 54.5403 27.8103 53.8375 28.2282C53.1346 28.6461 52.6027 29.1211 52.2227 29.672V29.349V28.8171C52.2227 28.2662 51.7668 27.8103 51.2159 27.8103H49.6582C49.1073 27.8103 48.6514 28.2662 48.6514 28.8171V40.842C48.6514 41.4119 49.1073 41.8679 49.6962 41.8679H51.2919C51.8618 41.8679 52.3367 41.4119 52.3367 40.842V35.086C52.3367 34.8011 52.3367 34.4591 52.3557 34.0602C52.3557 33.6613 52.4127 33.3003 52.5077 32.9774C52.5647 32.7684 52.6407 32.5405 52.7736 32.2935C52.9066 32.0466 53.0776 31.8186 53.3056 31.5906C53.5335 31.3627 53.8185 31.1917 54.1604 31.0397C54.5024 30.8878 54.9013 30.8118 55.3762 30.8118C55.8321 30.8118 56.2311 30.8878 56.554 31.0207C56.8769 31.1537 57.1239 31.4007 57.2759 31.7616C57.4278 32.1225 57.5228 32.6734 57.5228 33.4523V40.861C57.5228 41.4309 57.9787 41.8869 58.5676 41.8869H60.1634C60.7333 41.8869 61.2082 41.4309 61.2082 40.861V33.3953C61.1512 32.7114 61.1132 32.0086 61.0182 31.2867Z" fill="white"/>
<path d="M43.3704 27.8875H41.7557C41.1858 27.8875 40.7108 28.3434 40.7108 28.9323L40.6729 40.8052C40.6729 41.3751 41.1478 41.85 41.7177 41.85H43.3324C43.9213 41.85 44.3772 41.3751 44.3772 40.8052V28.9323C44.4152 28.3624 43.9403 27.8875 43.3704 27.8875Z" fill="white"/>
</g>
<defs>
<clipPath id="clip0_4316_194">
<rect width="64" height="64" fill="white"/>
</clipPath>
</defs>
</svg>
