<svg width="64" height="64" viewBox="0 0 64 64" fill="none" xmlns="http://www.w3.org/2000/svg">
<rect width="64" height="64" fill="#103852"/>
<path d="M46.3239 44.9864H53.2394L43.2113 30.3397L56 18.0546H44.6197L19.2676 42.7614L23.9014 18H17.6338L8 24.1016V31.0222L13.7887 28.4151L13 30.6946C12.1127 35.4585 11.2113 40.2497 10.338 44.9864H28.9577L36.662 37.0147L39.8169 41.6694C40.5448 42.6912 41.5164 43.5276 42.6493 44.1074C43.7822 44.6873 45.0428 44.9935 46.3239 45V44.9864ZM31.2958 28.1148L24.5775 18H32.2535C33.3348 18.0595 34.3923 18.3324 35.361 18.8018C36.3297 19.2712 37.1894 19.9274 37.8873 20.73L38.338 21.3306L31.2958 28.1148Z" fill="white"/>
</svg>
