<?xml version="1.0" encoding="UTF-8"?>
<svg xmlns="http://www.w3.org/2000/svg" width="64" height="64" viewBox="0 0 64 64" fill="none">
  <rect width="64" height="64" fill="#43B02A"></rect>
  <path d="M31.8785 56.4265C30.2769 56.4265 28.6753 56.4265 27.0737 56.2809C25.0353 56.1353 23.1425 55.8441 21.2497 55.4073C19.7937 55.1161 18.4833 54.5337 17.1728 53.9513C15.8624 53.2233 14.552 52.3497 13.3872 51.3305C12.368 50.3113 11.4944 49.1465 10.7664 47.8361C9.74721 45.7977 9.01921 43.7592 8.5824 41.4296C8.1456 38.9544 8 36.3336 8 33.8584C8 31.9656 8 29.9272 8 28.0344C8.1456 25.268 8.4368 22.5016 9.31041 19.8807C10.184 17.2599 11.4944 14.7847 13.6784 12.8919C14.552 12.0183 15.7168 11.2903 16.736 10.7079C19.2113 9.39749 21.9777 8.66948 24.7441 8.37828C28.8209 7.94148 32.7521 7.94148 36.8289 8.08708C38.5761 8.08708 40.1778 8.37829 41.925 8.66949C44.4002 9.25189 46.5842 9.97989 48.7682 11.4359C50.3698 12.4551 51.6802 13.7655 52.6994 15.3671C54.301 17.6967 55.029 20.1719 55.6114 22.9383C56.0482 25.268 56.1938 27.7432 56.1938 30.0728C56.1938 32.2568 56.1938 34.2952 56.1938 36.4792C56.0482 39.2456 55.757 41.8664 54.8834 44.4872C54.0098 47.1081 52.5538 49.5833 50.5154 51.4761C49.205 52.6409 47.8946 53.5145 46.293 54.0969C45.2738 54.5337 44.2546 54.9705 43.0898 55.1161C41.925 55.4073 40.9058 55.5529 39.7409 55.6985C37.1201 56.5721 34.4993 56.4265 31.8785 56.4265ZM52.4082 32.548C52.4082 31.5288 52.4082 30.5096 52.4082 29.4904C52.4082 26.8696 52.117 24.2487 51.389 21.7735C51.0978 20.4631 50.5154 19.2983 49.7874 18.2791C48.3314 15.9495 46.293 14.4935 43.8178 13.6199C42.3618 13.0375 40.9057 12.7463 39.4497 12.6007C37.8481 12.4551 36.2465 12.3095 34.4993 12.1639C32.8977 12.1639 31.2961 12.1639 29.6945 12.1639C27.0737 12.3095 24.4529 12.4551 21.9777 13.0375C20.5217 13.4743 19.0657 14.0567 17.7553 14.7847C16.5904 15.5127 15.7168 16.3863 14.9888 17.4055C14.1152 18.7159 13.3872 20.0263 12.9504 21.6279C12.8048 22.356 12.5136 22.9383 12.5136 23.6663C12.5136 24.1032 12.5136 24.1032 12.9504 24.2488C13.5328 24.2488 14.1152 24.2488 14.552 24.2488C17.3184 24.2488 19.9393 24.3944 22.5601 24.8312C24.0161 24.9768 25.4721 25.268 26.7825 25.7048C28.0929 26.1416 29.4033 26.5784 30.7137 27.3064C32.6065 28.18 34.0625 29.4904 35.3729 31.092C36.5377 32.548 37.4113 34.1496 38.1393 35.7512C38.4305 36.3336 38.5761 37.0616 38.8673 37.7896C39.1585 39.1 39.4497 40.4104 39.7409 41.7208C40.0322 43.4681 40.1778 45.2153 40.3234 47.1081C40.3234 48.5641 40.3234 50.1657 40.469 51.6217C40.469 52.2041 40.469 52.2041 41.0514 52.0585C42.653 51.7673 44.2546 51.1849 45.8562 50.4569C47.6034 49.5833 49.0594 48.2729 50.0786 46.5256C51.389 44.3416 51.9714 42.012 52.2626 39.5368C52.4082 37.2072 52.4082 34.8776 52.4082 32.548ZM20.3761 32.4024C17.7552 32.4024 15.1344 32.4024 12.5136 32.4024C11.9312 32.4024 11.9312 32.4024 11.9312 32.9848C11.9312 35.7512 12.0768 38.5176 12.6592 41.284C12.9504 42.74 13.3872 44.3417 14.1152 45.6521C14.8432 47.1081 15.8624 48.4185 17.1728 49.4377C18.1921 50.3113 19.3569 50.8937 20.6673 51.3305C21.3953 51.6217 22.1233 51.7673 22.9969 52.0585C24.0161 52.2041 25.0353 52.3497 26.0545 52.4953C28.0929 52.7865 29.9857 52.7865 32.0241 52.7865H32.1697C32.4609 52.7865 32.4609 52.6409 32.4609 52.3497C32.4609 51.9129 32.4609 51.6217 32.4609 51.1849C32.4609 47.2537 32.4609 43.1768 32.4609 39.2456C32.4609 37.9352 32.4609 36.7704 32.3153 35.46C32.3153 35.0232 32.0241 34.5864 31.8785 34.1496C31.7329 33.8584 31.4417 33.5672 31.0049 33.276C30.4225 32.9848 29.9857 32.8392 29.4033 32.6936C28.0929 32.548 26.9281 32.548 25.6177 32.548C23.5793 32.4024 21.9777 32.4024 20.3761 32.4024Z" fill="#FCFCFC"></path>
  <path d="M52.4084 32.5472C52.4084 34.8768 52.4084 37.2064 52.1172 39.536C51.826 42.0112 51.2436 44.3408 49.9331 46.5248C48.9139 48.272 47.4579 49.5825 45.7107 50.4561C44.2547 51.1841 42.6531 51.7665 40.9059 52.0577C40.3235 52.2033 40.3235 52.0577 40.3235 51.6209C40.3235 50.1648 40.3235 48.5633 40.1779 47.1072C40.1779 45.36 39.8867 43.4672 39.5955 41.72C39.4499 40.4096 39.1587 39.0992 38.7219 37.7888C38.5763 37.0608 38.2851 36.4784 37.9939 35.7504C37.4115 34.0032 36.3923 32.4016 35.2275 31.0912C33.9171 29.4896 32.3155 28.3248 30.5683 27.3055C29.2578 26.7231 28.093 26.1408 26.637 25.704C25.181 25.2672 23.8706 24.9759 22.4146 24.8303C19.7938 24.3935 17.0274 24.2479 14.4066 24.2479C13.8242 24.2479 13.2418 24.2479 12.805 24.2479C12.3682 24.2479 12.3682 24.1023 12.3682 23.6655C12.5138 22.9375 12.6594 22.3551 12.805 21.6271C13.2418 20.1711 13.8242 18.7151 14.8434 17.4047C15.5714 16.3855 16.5906 15.5119 17.6098 14.7839C18.9202 13.9103 20.3762 13.3279 21.8322 13.0367C24.3074 12.3087 26.9282 12.1631 29.549 12.1631C31.1507 12.1631 32.7523 12.1631 34.3539 12.1631C35.9555 12.1631 37.7027 12.3087 39.3043 12.5999C40.7603 12.7455 42.3619 13.0367 43.6723 13.6191C46.1475 14.4927 48.1859 15.9487 49.6419 18.2783C50.3699 19.4431 50.8068 20.6079 51.2436 21.7727C51.9716 24.2479 52.2628 26.8687 52.2628 29.4896C52.4084 30.5088 52.4084 31.528 52.4084 32.5472ZM41.1971 19.0063C40.7603 19.0063 40.4691 19.0063 40.0323 19.1519C38.5763 19.4431 37.5571 20.1711 37.1203 21.4815C36.6835 22.6463 36.6835 23.8111 36.9747 24.9759C37.1203 25.704 37.4115 26.4319 37.9939 26.8687C38.5763 27.4511 39.3043 27.7424 40.1779 27.888C41.0515 28.0336 41.7795 27.888 42.6531 27.7424C43.9635 27.4512 45.2739 26.2864 45.4195 24.9759C45.5651 24.2479 45.5651 23.3743 45.5651 22.6463C45.4195 21.0447 44.5459 19.8799 43.0899 19.2975C42.5075 19.0063 41.7795 19.0063 41.1971 19.0063Z" fill="#251061"></path>
  <path d="M20.3767 32.4024C21.9783 32.4024 23.5799 32.4024 25.3271 32.4024C26.6375 32.4024 27.8023 32.4024 29.1127 32.548C29.6951 32.6936 30.2775 32.8392 30.7143 33.1304C31.1511 33.276 31.2967 33.5672 31.5879 34.004C31.7335 34.4408 32.0247 34.8776 32.0247 35.3144C32.1703 36.6248 32.1703 37.7897 32.1703 39.1001C32.1703 43.0313 32.1703 47.1081 32.1703 51.0393C32.1703 51.4761 32.1703 51.7673 32.1703 52.2041C32.1703 52.4953 32.0247 52.6409 31.8791 52.6409H31.7335C29.6951 52.6409 27.8023 52.6409 25.7639 52.3497C24.7447 52.2041 23.7255 52.0585 22.7063 51.9129C21.9783 51.7673 21.1047 51.4761 20.3767 51.1849C19.2119 50.7481 17.9015 50.1657 16.8822 49.2921C15.5718 48.2729 14.5526 46.9625 13.8246 45.5065C13.0966 44.0505 12.6598 42.5945 12.3686 41.1385C11.7862 38.3721 11.7862 35.6056 11.6406 32.8392C11.6406 32.4024 11.6406 32.2568 12.223 32.2568C14.9894 32.4024 17.7559 32.4024 20.3767 32.4024ZM23.1431 37.0616C22.5607 37.0616 21.9783 37.0616 21.2503 37.0616C20.9591 37.0616 20.5223 37.2072 20.2311 37.2072C19.3575 37.4985 18.9207 38.0808 18.7751 38.9545C18.6295 40.5561 18.6295 42.1577 18.7751 43.7593C18.7751 44.1961 18.9207 44.4873 19.0663 44.7785C19.2119 44.9241 19.2119 45.0697 19.5031 45.2153C19.7943 45.3609 20.2311 45.6521 20.6679 45.6521C22.2695 45.7977 24.0167 45.7977 25.6183 45.6521C26.6375 45.5065 27.3655 44.9241 27.5111 43.7593C27.6567 42.8857 27.6567 42.0121 27.6567 41.1385C27.6567 40.4105 27.6567 39.6825 27.5111 38.9545C27.3655 38.3721 27.2199 37.6441 26.4919 37.3529C26.0551 37.2073 25.6183 36.9161 25.0359 36.9161C24.3079 37.0617 23.7255 37.0616 23.1431 37.0616Z" fill="#251061"></path>
  <path d="M41.1969 19.0078C41.7793 19.0078 42.3617 19.0078 43.0897 19.299C44.5457 19.8814 45.4193 21.0462 45.5649 22.6478C45.7105 23.3758 45.5649 24.2494 45.4193 24.9774C45.1281 26.2879 43.9633 27.5983 42.6529 27.7439C41.7793 27.8895 41.0512 27.8895 40.1776 27.8895C39.304 27.7439 38.576 27.4526 37.9936 26.8702C37.4112 26.4334 37.12 25.7055 36.9744 24.9774C36.6832 23.8126 36.6832 22.6478 37.12 21.483C37.7024 20.1726 38.7216 19.299 40.032 19.1534C40.4688 19.0078 40.7601 19.0078 41.1969 19.0078Z" fill="#FCFCFC"></path>
  <path d="M23.1432 37.0615C23.7256 37.0615 24.4536 37.0615 25.036 37.0615C25.6185 37.0615 26.0553 37.2071 26.4921 37.4983C27.2201 37.7895 27.3657 38.5175 27.5113 39.0999C27.6569 39.8279 27.6569 40.556 27.6569 41.284C27.6569 42.1576 27.6569 43.0312 27.5113 43.9048C27.3657 45.0696 26.7832 45.652 25.6184 45.7976C24.0168 45.9432 22.2696 46.0888 20.668 45.7976C20.2312 45.7976 19.94 45.5064 19.5032 45.3608C19.3576 45.2152 19.212 45.0696 19.0664 44.924C18.9208 44.6328 18.7752 44.196 18.7752 43.9048C18.6296 42.3032 18.6296 40.7016 18.7752 39.0999C18.9208 38.2263 19.3576 37.6439 20.2312 37.3527C20.5224 37.2071 20.9592 37.2071 21.2504 37.2071C21.8328 37.0615 22.4152 37.0615 23.1432 37.0615Z" fill="#FCFCFC"></path>
</svg>
