<svg width="64" height="64" viewBox="0 0 64 64" fill="none" xmlns="http://www.w3.org/2000/svg">
<rect width="64" height="64" fill="#010101"/>
<path d="M31.5548 32.0429C31.6773 32.1644 31.7461 32.3287 31.7461 32.5C31.7461 32.6713 31.6773 32.8356 31.5548 32.9571L16.5603 47.7384C16.0986 48.1935 15.7205 48.0395 15.7205 47.3954V41.6833C15.7205 41.5116 15.6515 41.3469 15.5284 41.2254C15.4054 41.1039 15.2385 41.0355 15.0644 41.0351H12.6562C12.5699 41.0353 12.4845 41.0187 12.4048 40.9862C12.3252 40.9538 12.2528 40.9061 12.1918 40.846C12.1308 40.7859 12.0825 40.7146 12.0496 40.636C12.0167 40.5574 11.9998 40.4733 12 40.3883V24.6104C12 24.4388 12.0691 24.2743 12.1922 24.153C12.3152 24.0317 12.4821 23.9636 12.6562 23.9636H15.0644C15.2384 23.9636 15.4053 23.8954 15.5284 23.7741C15.6514 23.6528 15.7205 23.4883 15.7205 23.3167V17.6046C15.7205 16.9605 16.0986 16.8065 16.5603 17.2616L31.5548 32.0429ZM51.3493 23.9636H48.9425C48.8562 23.9637 48.7707 23.9471 48.6909 23.9147C48.6112 23.8823 48.5387 23.8347 48.4776 23.7746C48.4165 23.7145 48.3681 23.6431 48.335 23.5646C48.3019 23.486 48.2849 23.4018 48.2849 23.3167V17.6046C48.2849 16.9605 47.9082 16.8065 47.4466 17.2616L32.4521 32.0429C32.3295 32.1644 32.2607 32.3287 32.2607 32.5C32.2607 32.6713 32.3295 32.8356 32.4521 32.9571L47.4466 47.7384C47.9082 48.1935 48.2849 48.0395 48.2849 47.3954V41.6833C48.2849 41.5114 48.3542 41.3465 48.4775 41.2249C48.6008 41.1034 48.7681 41.0351 48.9425 41.0351H51.3493C51.5225 41.034 51.6882 40.9654 51.8102 40.8441C51.9321 40.7229 52.0004 40.559 52 40.3883V24.6104C52 24.4388 51.9309 24.2743 51.8078 24.153C51.6848 24.0317 51.5179 23.9636 51.3438 23.9636" fill="white"/>
</svg>
