<svg width="64" height="64" viewBox="0 0 64 64" fill="none" xmlns="http://www.w3.org/2000/svg">
<rect width="64" height="64" fill="#D42A28"/>
<path d="M23.3271 51.77C23.1609 51.9243 22.7575 52 22.1122 52H14.0813C13.2151 52 12.8664 51.6181 13.0457 50.8557L19.5329 22.8589C19.8521 21.4872 20.3508 20.145 21.0345 18.8291C21.7151 17.5166 22.5944 16.3556 23.679 15.3458C24.7604 14.3358 26.0695 13.5233 27.6097 12.9149C29.1437 12.306 30.912 12 32.9085 12H50.1104C50.563 12 50.84 12.0693 50.941 12.2045C51.0387 12.3359 51.0159 12.724 50.8662 13.3721L49.3715 19.8291C49.2539 20.3259 49.1042 20.6579 48.912 20.829C48.7199 21.0001 48.417 21.0858 48.0034 21.0858H34.0321C33.2763 21.0858 32.6481 21.191 32.1497 21.4015C31.6449 21.6088 31.2444 21.8655 30.9513 22.1715C30.6546 22.4771 30.4204 22.8192 30.2576 23.201C30.0948 23.5823 29.9678 23.9641 29.8799 24.3425L29.062 27.885H43.9391C44.3917 27.885 44.6656 27.964 44.7629 28.1121C44.8609 28.2667 44.8312 28.6681 44.6815 29.3127L43.3041 35.2565C43.102 36.132 42.6428 36.5728 41.9263 36.5728H27.0495L23.7376 50.8557C23.63 51.3128 23.4934 51.6181 23.3271 51.77" fill="white"/>
</svg>
