<svg width="64" height="64" viewBox="0 0 64 64" fill="none" xmlns="http://www.w3.org/2000/svg">
<rect width="64" height="64" fill="#212428"/>
<path d="M28.5334 6.22635C31.0893 5.84732 33.7398 5.98945 36.2956 6.32111C38.4728 10.2536 40.4607 14.2334 42.6852 18.1184C46.803 18.9713 51.0154 19.5872 55.1332 20.3926L55.2278 20.44C56.4111 22.9037 57.263 25.5095 57.6417 28.2575C54.8019 31.3845 51.9147 34.5115 49.0275 37.5912C49.4535 41.8079 50.2581 45.9772 50.4474 50.1939C48.6016 52.2312 46.2824 53.8421 43.8685 55.1213C39.9874 53.2262 36.059 51.4258 32.1305 49.578C28.2494 51.5679 24.2263 53.3209 20.2979 55.3109C18.0261 54.1264 15.8962 52.6103 14.003 50.8572C14.4763 46.451 15.0442 41.9974 15.5175 37.5912C12.4411 34.3694 9.4119 31.0529 6.28809 27.8785C6.6194 25.3674 7.47135 22.9511 8.55995 20.6295C13.0563 19.8241 17.6001 18.9713 22.0491 17.9763C24.321 14.0439 26.4036 10.1114 28.5334 6.22635Z" fill="white"/>
<path d="M8.65332 20.582C12.2504 12.8592 20.06 7.12639 28.5321 6.2262C26.4023 10.1113 24.2724 14.0437 22.0952 17.9288C17.6461 18.9237 13.1497 19.7766 8.65332 20.582ZM36.3417 6.27358C44.3879 7.5528 51.8187 12.9066 55.1792 20.3451C51.0615 19.5397 46.849 18.9237 42.7313 18.0709C40.5068 14.1858 38.5189 10.206 36.3417 6.27358Z" fill="#D71015"/>
<path d="M24.6514 22.3351C29.3371 22.0509 34.1648 22.3351 38.8979 22.193L39.1819 22.4299C40.6491 26.8835 41.9744 31.3371 43.5836 35.7434C39.9392 38.823 35.7741 41.4762 31.9403 44.4137C28.0592 41.5236 23.9415 38.823 20.297 35.7434C21.8589 31.3371 23.2315 26.8361 24.6514 22.3351ZM6.38183 27.8311C9.50564 31.0055 12.5348 34.322 15.6113 37.5437C15.0906 41.95 14.5227 46.3562 14.0967 50.8098C7.94374 45.077 4.86726 36.075 6.38183 27.8311ZM49.0739 37.5437C51.9611 34.4167 54.8483 31.3371 57.6881 28.2101C58.966 36.075 56.2682 44.6032 50.4939 50.1465C50.3045 45.9298 49.5473 41.7605 49.0739 37.5437ZM20.3443 55.2161C24.2728 53.2735 28.2485 51.4731 32.177 49.4832C36.1054 51.331 40.0338 53.1314 43.9149 55.0266C36.7207 58.959 27.5859 58.959 20.3443 55.2161Z" fill="#D71015"/>
</svg>
