<svg width="64" height="64" viewBox="0 0 64 64" fill="none" xmlns="http://www.w3.org/2000/svg">
<rect width="64" height="64" fill="black"/>
<path d="M40.3473 38.5721H49.0263C49.5111 38.5721 49.9495 38.4087 50.3651 38.0587C50.7575 37.7086 51.0113 37.2886 51.1036 36.7985C51.1959 36.3084 51.1036 35.865 50.8498 35.5383C50.5729 35.1883 50.2036 35.0249 49.7189 35.0249L43.9943 35.0483L44.8714 29.8209H50.7112C52.581 29.8209 54.0584 30.4976 55.1198 31.8745C56.1816 33.2514 56.5281 34.8849 56.1588 36.8218C55.7892 38.7588 54.7969 40.3923 53.2272 41.7692C51.6347 43.146 49.9035 43.8228 48.0337 43.8228H34.2998L38.6857 21.0464H57.6358L56.6435 26.2504H42.7478L40.3473 38.5721Z" fill="#FDBA01"/>
<path d="M32.1669 43.7997H27.0196L29.0047 33.485L21.6877 43.7997H18.4562L15.1324 33.485L13.1473 43.7997H8L12.3625 21H17.5329L21.78 35.0019L31.3821 21H36.5525L32.1669 43.7997Z" fill="white"/>
</svg>
