<svg width="14" height="14" viewBox="0 0 14 14" fill="none" xmlns="http://www.w3.org/2000/svg">
<path d="M12.7958 4.07878L5.41335 10.8143C5.34906 10.8731 5.27265 10.9199 5.18853 10.9517C5.1044 10.9836 5.01421 11 4.92312 11C4.83202 11 4.74183 10.9836 4.6577 10.9517C4.57358 10.9199 4.49717 10.8731 4.43288 10.8143L1.20306 7.86749C1.13868 7.80876 1.08762 7.73903 1.05277 7.66228C1.01793 7.58554 1 7.50328 1 7.42022C1 7.33715 1.01793 7.25489 1.05277 7.17815C1.08762 7.1014 1.13868 7.03167 1.20306 6.97294C1.26744 6.9142 1.34387 6.8676 1.42799 6.83582C1.5121 6.80403 1.60226 6.78767 1.6933 6.78767C1.78435 6.78767 1.8745 6.80403 1.95862 6.83582C2.04273 6.8676 2.11916 6.9142 2.18354 6.97294L4.92369 9.47296L11.8165 3.18527C11.9465 3.06664 12.1228 3 12.3067 3C12.4906 3 12.6669 3.06664 12.7969 3.18527C12.927 3.30389 13 3.46479 13 3.63255C13 3.80031 12.927 3.9612 12.7969 4.07983L12.7958 4.07878Z" fill="#0FB52A"/>
</svg>
