<svg width="180" height="52" viewBox="0 0 180 52" fill="none" xmlns="http://www.w3.org/2000/svg">
<path d="M179 46.0031C179 48.7743 176.709 51.0189 173.874 51.0189H6.13243C3.2995 51.0189 1 48.7743 1 46.0031V6.00357C1 3.23374 3.2995 0.981201 6.13243 0.981201H173.873C176.709 0.981201 178.999 3.23374 178.999 6.00357L179 46.0031Z" fill="white"/>
<path d="M173.333 1.04162C176.42 1.04162 178.932 3.4905 178.932 6.5V45.5C178.932 48.5095 176.42 50.9584 173.333 50.9584H6.66667C3.58 50.9584 1.06833 48.5095 1.06833 45.5V6.5C1.06833 3.4905 3.58 1.04162 6.66667 1.04162H173.333ZM173.333 2.74817e-06H6.66667C3.00167 2.74817e-06 0 2.92663 0 6.5V45.5C0 49.0734 3.00167 52 6.66667 52H173.333C176.998 52 180 49.0734 180 45.5V6.5C180 2.92663 176.998 2.74817e-06 173.333 2.74817e-06Z" fill="#A6A6A6"/>
<path d="M40.1705 25.7191C40.1318 21.5292 43.6891 19.4908 43.8518 19.3959C41.8371 16.532 38.7145 16.1407 37.6171 16.1095C34.9945 15.8404 32.4505 17.6396 31.1145 17.6396C29.7518 17.6396 27.6945 16.1355 25.4771 16.1797C22.6238 16.2226 19.9545 17.8333 18.4905 20.3345C15.4691 25.4344 17.7225 32.9289 20.6171 37.0512C22.0651 39.0701 23.7571 41.3243 25.9718 41.245C28.1385 41.1579 28.9478 39.8982 31.5625 39.8982C34.1531 39.8982 34.9131 41.245 37.1718 41.1943C39.4971 41.1579 40.9611 39.1663 42.3585 37.1292C44.0318 34.8152 44.7038 32.5363 44.7305 32.4193C44.6758 32.4011 40.2145 30.741 40.1705 25.7191Z" fill="black"/>
<path d="M35.9038 13.3977C37.0691 11.9768 37.8665 10.0437 37.6451 8.08203C35.9585 8.15483 33.8491 9.21953 32.6345 10.6092C31.5598 11.8338 30.5998 13.841 30.8478 15.7286C32.7425 15.8664 34.6878 14.7965 35.9038 13.3977Z" fill="black"/>
<path d="M71.5269 32.5538H68.4989L66.8402 27.4721H61.0749L59.4949 32.5538H56.5469L62.2589 15.2534H65.7869L71.5269 32.5538ZM66.3402 25.3401L64.8402 20.8226C64.6815 20.3611 64.3842 19.2743 63.9455 17.5635H63.8922C63.7175 18.2993 63.4362 19.3861 63.0495 20.8226L61.5762 25.3401H66.3402Z" fill="black"/>
<path d="M86.2159 26.1631C86.2159 28.2847 85.6279 29.9617 84.4519 31.1928C83.3985 32.2887 82.0905 32.836 80.5292 32.836C78.8439 32.836 77.6332 32.2458 76.8959 31.0654H76.8425V37.6369H73.9999V24.1858C73.9999 22.852 73.9639 21.4831 73.8945 20.0791H76.3945L76.5532 22.0564H76.6065C77.5545 20.5666 78.9932 19.823 80.9239 19.823C82.4332 19.823 83.6932 20.4041 84.7012 21.5676C85.7119 22.7324 86.2159 24.2638 86.2159 26.1631ZM83.3199 26.2645C83.3199 25.0503 83.0399 24.0493 82.4772 23.2615C81.8625 22.4399 81.0372 22.0291 80.0025 22.0291C79.3012 22.0291 78.6639 22.2579 78.0945 22.709C77.5239 23.164 77.1505 23.7581 76.9759 24.4939C76.8879 24.8371 76.8439 25.1179 76.8439 25.3389V27.4189C76.8439 28.3263 77.1292 29.092 77.6999 29.7173C78.2705 30.3426 79.0119 30.6546 79.9239 30.6546C80.9945 30.6546 81.8279 30.2516 82.4239 29.4482C83.0212 28.6435 83.3199 27.5827 83.3199 26.2645Z" fill="black"/>
<path d="M100.932 26.1631C100.932 28.2847 100.344 29.9617 99.167 31.1928C98.115 32.2887 96.807 32.836 95.2456 32.836C93.5603 32.836 92.3496 32.2458 91.6136 31.0654H91.5603V37.6369H88.7176V24.1858C88.7176 22.852 88.6816 21.4831 88.6123 20.0791H91.1123L91.271 22.0564H91.3243C92.271 20.5666 93.7096 19.823 95.6416 19.823C97.1496 19.823 98.4096 20.4041 99.4203 21.5676C100.427 22.7324 100.932 24.2638 100.932 26.1631ZM98.0363 26.2645C98.0363 25.0503 97.755 24.0493 97.1923 23.2615C96.5776 22.4399 95.755 22.0291 94.719 22.0291C94.0163 22.0291 93.3803 22.2579 92.8096 22.709C92.239 23.164 91.867 23.7581 91.6923 24.4939C91.6056 24.8371 91.5603 25.1179 91.5603 25.3389V27.4189C91.5603 28.3263 91.8456 29.092 92.4136 29.7173C92.9843 30.3413 93.7256 30.6546 94.6403 30.6546C95.711 30.6546 96.5443 30.2516 97.1403 29.4482C97.7376 28.6435 98.0363 27.5827 98.0363 26.2645Z" fill="black"/>
<path d="M117.386 27.7023C117.386 29.1739 116.862 30.3712 115.81 31.2955C114.654 32.3056 113.045 32.81 110.977 32.81C109.067 32.81 107.537 32.4512 106.378 31.7323L107.037 29.4222C108.285 30.158 109.654 30.5272 111.146 30.5272C112.217 30.5272 113.05 30.2906 113.649 29.82C114.245 29.3494 114.542 28.7176 114.542 27.9298C114.542 27.2278 114.297 26.6363 113.805 26.1566C113.315 25.6769 112.498 25.231 111.357 24.8189C108.25 23.6892 106.698 22.0343 106.698 19.8581C106.698 18.4359 107.242 17.2698 108.331 16.3624C109.417 15.4537 110.865 15 112.675 15C114.29 15 115.631 15.2743 116.702 15.8216L115.991 18.081C114.991 17.5506 113.861 17.2854 112.595 17.2854C111.595 17.2854 110.814 17.5259 110.254 18.0043C109.781 18.432 109.543 18.9533 109.543 19.5708C109.543 20.2546 109.814 20.8201 110.358 21.2647C110.831 21.6755 111.691 22.1201 112.939 22.5998C114.466 23.1991 115.587 23.8998 116.309 24.7032C117.027 25.504 117.386 26.5063 117.386 27.7023Z" fill="black"/>
<path d="M126.784 22.159H123.651V28.2157C123.651 29.7562 124.203 30.5258 125.31 30.5258C125.818 30.5258 126.239 30.4829 126.572 30.3971L126.651 32.5018C126.091 32.7059 125.354 32.8086 124.44 32.8086C123.318 32.8086 122.44 32.4745 121.807 31.8076C121.176 31.1394 120.859 30.0188 120.859 28.4445V22.1564H118.992V20.0764H120.859V17.7923L123.651 16.9707V20.0764H126.784V22.159Z" fill="black"/>
<path d="M140.922 26.2137C140.922 28.1312 140.359 29.7055 139.236 30.9366C138.059 32.2041 136.496 32.8359 134.548 32.8359C132.671 32.8359 131.176 32.2288 130.062 31.0146C128.947 29.8004 128.39 28.2677 128.39 26.4204C128.39 24.4873 128.963 22.9039 130.114 21.6728C131.262 20.4404 132.811 19.8242 134.759 19.8242C136.636 19.8242 138.147 20.4313 139.287 21.6468C140.378 22.8259 140.922 24.3482 140.922 26.2137ZM137.972 26.3034C137.972 25.1529 137.72 24.1662 137.21 23.3433C136.614 22.3475 135.762 21.8509 134.658 21.8509C133.515 21.8509 132.647 22.3488 132.051 23.3433C131.54 24.1675 131.288 25.1698 131.288 26.3554C131.288 27.5059 131.54 28.4926 132.051 29.3142C132.666 30.31 133.524 30.8066 134.632 30.8066C135.718 30.8066 136.57 30.2996 137.184 29.2882C137.708 28.4497 137.972 27.4526 137.972 26.3034Z" fill="black"/>
<path d="M150.162 22.5166C149.88 22.4659 149.58 22.4399 149.266 22.4399C148.266 22.4399 147.492 22.8078 146.948 23.5449C146.475 24.1949 146.238 25.0165 146.238 26.0084V32.5539H143.396L143.423 24.0077C143.423 22.5699 143.387 21.2608 143.316 20.0804H145.792L145.896 22.4672H145.975C146.275 21.6469 146.748 20.9865 147.396 20.4912C148.03 20.0453 148.714 19.823 149.451 19.823C149.714 19.823 149.951 19.8412 150.162 19.8737V22.5166Z" fill="black"/>
<path d="M162.875 25.7263C162.875 26.2229 162.841 26.6415 162.771 26.9834H154.243C154.276 28.2158 154.688 29.1583 155.48 29.8083C156.199 30.3894 157.128 30.6806 158.269 30.6806C159.532 30.6806 160.684 30.4843 161.72 30.0904L162.165 32.0144C160.955 32.5292 159.525 32.7853 157.876 32.7853C155.892 32.7853 154.335 32.2159 153.201 31.0784C152.071 29.9409 151.504 28.4134 151.504 26.4972C151.504 24.6161 152.031 23.0496 153.085 21.8003C154.189 20.4665 155.681 19.7996 157.559 19.7996C159.403 19.7996 160.799 20.4665 161.747 21.8003C162.497 22.8598 162.875 24.1702 162.875 25.7263ZM160.164 25.0074C160.183 24.1858 159.997 23.476 159.612 22.8767C159.12 22.1058 158.364 21.721 157.347 21.721C156.417 21.721 155.661 22.0967 155.084 22.8507C154.611 23.45 154.329 24.1689 154.243 25.0061H160.164V25.0074Z" fill="black"/>
</svg>
