<svg width="180" height="52" viewBox="0 0 180 52" fill="none" xmlns="http://www.w3.org/2000/svg">
<path d="M173.333 52H6.66667C3.00167 52 0 49.0734 0 45.5V6.5C0 2.92663 3.00167 2.74817e-06 6.66667 2.74817e-06H173.333C176.998 2.74817e-06 180 2.92663 180 6.5V45.5C180 49.0734 176.998 52 173.333 52Z" fill="white"/>
<path d="M173.333 1.04162C176.42 1.04162 178.932 3.4905 178.932 6.5V45.5C178.932 48.5095 176.42 50.9584 173.333 50.9584H6.66667C3.58 50.9584 1.06833 48.5095 1.06833 45.5V6.5C1.06833 3.4905 3.58 1.04162 6.66667 1.04162H173.333ZM173.333 2.74817e-06H6.66667C3.00167 2.74817e-06 0 2.92663 0 6.5V45.5C0 49.0734 3.00167 52 6.66667 52H173.333C176.998 52 180 49.0734 180 45.5V6.5C180 2.92663 176.998 2.74817e-06 173.333 2.74817e-06Z" fill="#A6A6A6"/>
<path d="M13.9133 9.80044C13.5216 10.2002 13.2949 10.8226 13.2949 11.6286V40.3781C13.2949 41.1841 13.5216 41.8064 13.9133 42.2062L14.0099 42.2939L30.5332 26.1902V25.8099L14.0099 9.7062L13.9133 9.80044Z" fill="url(#paint0_linear_201_10063)"/>
<path d="M36.0349 31.5608L30.5332 26.1902V25.8099L36.0415 20.4393L36.1649 20.5092L42.6882 24.128C44.5499 25.155 44.5499 26.845 42.6882 27.8785L36.1649 31.4909L36.0349 31.5608Z" fill="url(#paint1_linear_201_10063)"/>
<path d="M36.1647 31.491L30.5331 26.0001L13.9131 42.2062C14.5314 42.84 15.5398 42.9163 16.6864 42.2826L36.1647 31.491Z" fill="url(#paint2_linear_201_10063)"/>
<path d="M36.1647 20.5091L16.6864 9.71751C15.5398 9.09025 14.5314 9.16663 13.9131 9.80038L30.5331 26L36.1647 20.5091Z" fill="url(#paint3_linear_201_10063)"/>
<path d="M90.8464 20.9775C87.7147 20.9775 85.1564 23.3013 85.1564 26.5074C85.1564 29.6875 87.7147 32.0356 90.8464 32.0356C93.9847 32.0356 96.543 29.6875 96.543 26.5074C96.543 23.3013 93.9847 20.9775 90.8464 20.9775ZM90.8464 29.8581C89.128 29.8581 87.6497 28.4753 87.6497 26.5074C87.6497 24.5135 89.128 23.155 90.8464 23.155C92.5647 23.155 94.0497 24.5135 94.0497 26.5074C94.0497 28.4753 92.5647 29.8581 90.8464 29.8581ZM78.4314 20.9775C75.293 20.9775 72.7414 23.3013 72.7414 26.5074C72.7414 29.6875 75.293 32.0356 78.4314 32.0356C81.568 32.0356 84.1214 29.6875 84.1214 26.5074C84.1214 23.3013 81.568 20.9775 78.4314 20.9775ZM78.4314 29.8581C76.7114 29.8581 75.2281 28.4753 75.2281 26.5074C75.2281 24.5135 76.7114 23.155 78.4314 23.155C80.1497 23.155 81.6281 24.5135 81.6281 26.5074C81.6281 28.4753 80.1497 29.8581 78.4314 29.8581ZM63.6581 22.6724V25.0221H69.4131C69.2447 26.3351 68.7947 27.3004 68.1047 27.9731C67.2647 28.7856 65.9564 29.6875 63.6581 29.6875C60.1164 29.6875 57.3431 26.9006 57.3431 23.4475C57.3431 19.9944 60.1164 17.2075 63.6581 17.2075C65.5731 17.2075 66.9664 17.9371 67.9947 18.8829L69.6931 17.227C68.2547 15.888 66.3414 14.8594 63.6581 14.8594C58.8014 14.8594 54.7197 18.7123 54.7197 23.4475C54.7197 28.1828 58.8014 32.0356 63.6581 32.0356C66.2831 32.0356 68.2547 31.1971 69.8047 29.6241C71.3931 28.0755 71.8881 25.898 71.8881 24.1398C71.8881 23.5938 71.8414 23.0916 71.7581 22.6724H63.6581ZM124.068 24.494C123.6 23.2574 122.155 20.9775 119.211 20.9775C116.295 20.9775 113.866 23.2184 113.866 26.5074C113.866 29.6046 116.27 32.0356 119.491 32.0356C122.096 32.0356 123.6 30.487 124.218 29.5851L122.285 28.329C121.64 29.2488 120.761 29.8581 119.491 29.8581C118.23 29.8581 117.325 29.2943 116.745 28.1828L124.33 25.1229L124.068 24.494ZM116.335 26.3351C116.27 24.2031 118.033 23.1111 119.296 23.1111C120.286 23.1111 121.126 23.5938 121.406 24.2844L116.335 26.3351ZM110.17 31.6993H112.663V15.4493H110.17V31.6993ZM106.086 22.2093H106.003C105.443 21.5625 104.375 20.9775 103.021 20.9775C100.181 20.9775 97.5847 23.4085 97.5847 26.5253C97.5847 29.6241 100.181 32.0356 103.021 32.0356C104.375 32.0356 105.443 31.4458 106.003 30.7795H106.086V31.5725C106.086 33.6866 104.928 34.8225 103.06 34.8225C101.536 34.8225 100.591 33.75 100.201 32.8481L98.033 33.7305C98.658 35.1963 100.313 37 103.06 37C105.983 37 108.45 35.323 108.45 31.2426V21.3139H106.086V22.2093ZM103.235 29.8581C101.516 29.8581 100.078 28.4558 100.078 26.5253C100.078 24.5769 101.516 23.155 103.235 23.155C104.928 23.155 106.263 24.5769 106.263 26.5253C106.263 28.4558 104.928 29.8581 103.235 29.8581ZM135.741 15.4493H129.778V31.6993H132.265V25.5421H135.741C138.503 25.5421 141.211 23.5938 141.211 20.4949C141.211 17.3976 138.496 15.4493 135.741 15.4493ZM135.806 23.2818H132.265V17.7096H135.806C137.663 17.7096 138.723 19.2128 138.723 20.4949C138.723 21.7526 137.663 23.2818 135.806 23.2818ZM151.178 20.9466C149.381 20.9466 147.513 21.7201 146.745 23.4345L148.951 24.3364C149.426 23.4345 150.3 23.142 151.223 23.142C152.513 23.142 153.821 23.8976 153.841 25.2318V25.4024C153.391 25.1489 152.428 24.7735 151.243 24.7735C148.866 24.7735 146.445 26.0491 146.445 28.4298C146.445 30.6073 148.391 32.0096 150.58 32.0096C152.253 32.0096 153.176 31.2735 153.756 30.4171H153.841V31.6732H156.243V25.4398C156.243 22.5586 154.036 20.9466 151.178 20.9466ZM150.878 29.8516C150.065 29.8516 148.931 29.4584 148.931 28.4753C148.931 27.2175 150.345 26.7349 151.568 26.7349C152.663 26.7349 153.176 26.9705 153.841 27.2809C153.646 28.7856 152.318 29.8516 150.878 29.8516ZM164.993 21.3025L162.135 28.3469H162.05L159.095 21.3025H156.413L160.853 31.1468L158.32 36.6246H160.918L167.76 21.3025H164.993ZM142.578 31.6993H145.071V15.4493H142.578V31.6993Z" fill="black"/>
<defs>
<linearGradient id="paint0_linear_201_10063" x1="29.0662" y1="40.6775" x2="7.25605" y2="18.3081" gradientUnits="userSpaceOnUse">
<stop stop-color="#00A0FF"/>
<stop offset="0.0066" stop-color="#00A1FF"/>
<stop offset="0.2601" stop-color="#00BEFF"/>
<stop offset="0.5122" stop-color="#00D2FF"/>
<stop offset="0.7604" stop-color="#00DFFF"/>
<stop offset="1" stop-color="#00E3FF"/>
</linearGradient>
<linearGradient id="paint1_linear_201_10063" x1="45.1124" y1="25.9982" x2="12.8499" y2="25.9982" gradientUnits="userSpaceOnUse">
<stop stop-color="#FFE000"/>
<stop offset="0.4087" stop-color="#FFBD00"/>
<stop offset="0.7754" stop-color="#FFA500"/>
<stop offset="1" stop-color="#FF9C00"/>
</linearGradient>
<linearGradient id="paint2_linear_201_10063" x1="33.1024" y1="23.0152" x2="3.52611" y2="-7.31951" gradientUnits="userSpaceOnUse">
<stop stop-color="#FF3A44"/>
<stop offset="1" stop-color="#C31162"/>
</linearGradient>
<linearGradient id="paint3_linear_201_10063" x1="9.72949" y1="51.7709" x2="22.9366" y2="38.2253" gradientUnits="userSpaceOnUse">
<stop stop-color="#32A071"/>
<stop offset="0.0685" stop-color="#2DA771"/>
<stop offset="0.4762" stop-color="#15CF74"/>
<stop offset="0.8009" stop-color="#06E775"/>
<stop offset="1" stop-color="#00F076"/>
</linearGradient>
</defs>
</svg>
