<svg width="20" height="20" viewBox="0 0 20 20" fill="none" xmlns="http://www.w3.org/2000/svg">
<path d="M15.8921 4.10831C14.3204 2.59032 12.2154 1.75037 10.0305 1.76936C7.84548 1.78834 5.75538 2.66475 4.21031 4.20982C2.66524 5.75489 1.78883 7.84499 1.76985 10.03C1.75086 12.2149 2.59081 14.32 4.1088 15.8916C5.68048 17.4096 7.7855 18.2496 9.97047 18.2306C12.1554 18.2116 14.2456 17.3352 15.7906 15.7901C17.3357 14.2451 18.2121 12.155 18.2311 9.96998C18.2501 7.78501 17.4101 5.67999 15.8921 4.10831ZM5.2838 5.28331C6.2227 4.34401 7.42076 3.70655 8.72436 3.45266C10.028 3.19877 11.3777 3.34003 12.6005 3.85831L12.3588 4.10831L12.9505 4.69997L13.3838 4.25831C13.6254 4.40409 13.8591 4.56265 14.0838 4.73331L4.7338 14.0833C4.56314 13.8586 4.40458 13.6249 4.2588 13.3833L4.70046 12.95L4.1088 12.3583L3.86713 12.6C3.34781 11.378 3.20521 10.0288 3.45761 8.7252C3.71 7.42165 4.3459 6.22315 5.2838 5.28331ZM14.7171 14.7166C13.7782 15.6559 12.5802 16.2934 11.2766 16.5473C9.97297 16.8012 8.62325 16.6599 7.40046 16.1416L7.64213 15.8916L7.05046 15.3L6.61713 15.7416C6.37552 15.5959 6.14186 15.4373 5.91713 15.2666L15.2671 5.91664C15.4378 6.14137 15.5963 6.37504 15.7421 6.61664L15.3005 7.04998L15.8921 7.64164L16.1338 7.39998C16.6531 8.62197 16.7957 9.97119 16.5433 11.2747C16.2909 12.5783 15.655 13.7768 14.7171 14.7166ZM9.4088 12.95L10.0005 13.5333L8.82546 14.7166L8.2338 14.1666L9.4088 12.95ZM11.7671 10.5916L12.3588 11.175L11.1755 12.3583L10.5921 11.7666L11.7671 10.5916ZM14.1671 8.23331L14.7588 8.82497L13.5338 9.99997L12.9505 9.40831L14.1671 8.23331ZM10.5921 7.04998L10.0005 6.46664L11.1755 5.28331L11.7671 5.87498L10.5921 7.04998ZM8.2338 9.40831L7.64213 8.82497L8.82546 7.64164L9.4088 8.23331L8.2338 9.40831ZM5.87546 11.7666L5.2838 11.175L6.46713 9.99997L7.05046 10.5916L5.87546 11.7666Z" fill="white"/>
</svg>
