<svg width="20" height="20" viewBox="0 0 20 20" fill="none" xmlns="http://www.w3.org/2000/svg">
<path d="M15.8327 13.3334V5.00004H18.3327V13.3334H15.8327ZM9.99935 3.33337H5.83268C5.83268 3.33337 1.66602 3.33337 1.66602 6.66671V11.6667C1.66602 13.1417 2.49935 13.9667 3.39102 14.425C3.52545 13.6536 3.92746 12.9542 4.52641 12.4497C5.12536 11.9453 5.88293 11.668 6.66602 11.6667H9.16602V13.3334H6.66602C6.22399 13.3334 5.80006 13.509 5.4875 13.8215C5.17494 14.1341 4.99935 14.558 4.99935 15C4.99935 15.4421 5.17494 15.866 5.4875 16.1786C5.80006 16.4911 6.22399 16.6667 6.66602 16.6667H10.8327C14.166 16.6667 14.166 13.3334 14.166 13.3334V5.00004C14.166 5.00004 13.3327 3.33337 9.99935 3.33337Z" fill="white"/>
</svg>
