<svg width="20" height="20" viewBox="0 0 20 20" fill="none" xmlns="http://www.w3.org/2000/svg">
<path d="M19.3818 11.582C20.6123 8.54297 19.999 4.92969 17.5381 2.46484C14.2607 -0.820313 8.94434 -0.820313 5.667 2.46484L3.4795 4.65625L11.7412 12.918C13.542 10.4922 16.8779 9.89453 19.3818 11.582ZM10.8701 14.6953L2.26075 6.08984C1.19434 7.85937 1.41309 10.1914 2.93653 11.7188L4.28418 13.0703L0.260747 16.5625C-0.0751904 16.8555 -0.0947217 17.3711 0.221685 17.6875L2.30762 19.7773C2.62012 20.0937 3.13575 20.0742 3.42872 19.7383L6.917 15.7031L8.31153 17.0977C9.08106 17.8672 10.0537 18.2891 11.0576 18.3984C10.7803 17.7344 10.6279 17.0078 10.6279 16.2461C10.624 15.707 10.7256 15.1914 10.8701 14.6953ZM16.249 12.5C14.1787 12.5 12.499 14.1797 12.499 16.25C12.499 18.3203 14.1787 20 16.249 20C18.3193 20 19.999 18.3203 19.999 16.25C19.999 14.1797 18.3193 12.5 16.249 12.5Z" fill="white"/>
</svg>
