<svg width="20" height="20" viewBox="0 0 20 20" fill="none" xmlns="http://www.w3.org/2000/svg">
<path d="M16.2668 2.07501C14.3168 0.125005 10.7501 0.516672 8.30846 2.95834C6.97513 4.29167 6.20846 6.18334 6.1918 7.50834C6.17513 8.825 6.40846 10.75 5.0668 12.0917L2.1168 15.0333C1.7918 15.3583 1.7918 15.8833 2.1168 16.2167C2.4418 16.5417 2.9668 16.5417 3.30013 16.2167L6.2418 13.2667C7.58346 11.925 9.50846 12.1583 10.8251 12.1417C12.1418 12.125 14.0418 11.3583 15.3751 10.025C17.8168 7.59167 18.2168 4.025 16.2668 2.07501ZM8.60013 9.73334C7.32513 8.45834 7.72513 5.89167 9.48346 4.13334C11.2418 2.37501 13.8001 1.97501 15.0835 3.25001C16.3585 4.52501 15.9585 7.09167 14.2001 8.85C12.4418 10.6083 9.88346 11.0083 8.60013 9.73334ZM15.0001 14.1667C15.4418 14.1667 15.8668 14.3417 16.1751 14.6583C16.8251 15.3083 16.8251 16.3667 16.1751 17.0167C15.8668 17.325 15.4418 17.5 15.0001 17.5C14.5585 17.5 14.1335 17.325 13.8251 17.0083C13.1751 16.3583 13.1751 15.3 13.8251 14.65C14.1335 14.3417 14.5585 14.1667 15.0001 14.1667ZM15.0001 12.5C14.3401 12.4987 13.6946 12.6934 13.1454 13.0595C12.5963 13.4256 12.1682 13.9466 11.9156 14.5563C11.6629 15.1661 11.5971 15.8371 11.7264 16.4843C11.8557 17.1316 12.1743 17.7258 12.6418 18.1917C13.2918 18.8417 14.1501 19.1667 15.0001 19.1667C15.6601 19.168 16.3057 18.9732 16.8548 18.6071C17.404 18.241 17.8321 17.7201 18.0847 17.1103C18.3373 16.5006 18.4032 15.8296 18.2739 15.1823C18.1446 14.5351 17.826 13.9409 17.3585 13.475C17.0487 13.1655 16.681 12.9201 16.2763 12.7528C15.8717 12.5855 15.438 12.4996 15.0001 12.5Z" fill="white"/>
</svg>
