<svg width="225" height="225" viewBox="0 0 225 225" fill="none" xmlns="http://www.w3.org/2000/svg">
<path d="M205 0H20C8.95431 0 0 8.9543 0 20V205C0 216.046 8.9543 225 20 225H205C216.046 225 225 216.046 225 205V20C225 8.95431 216.046 0 205 0Z" fill="#D42A28"/>
<path d="M82.4167 182.189C81.8306 182.733 80.4081 183 78.1325 183H49.8131C46.7586 183 45.5289 181.654 46.1612 178.966L69.0371 80.2776C70.1627 75.4424 71.9213 70.7111 74.3322 66.0726C76.7322 61.446 79.8329 57.3535 83.6576 53.7939C87.4709 50.2337 92.0872 47.3696 97.5185 45.225C102.928 43.0786 109.163 42 116.204 42H176.863C178.459 42 179.436 42.2443 179.792 42.7209C180.137 43.184 180.056 44.5521 179.528 46.8367L174.257 69.5976C173.843 71.3488 173.315 72.5191 172.637 73.1222C171.96 73.7254 170.892 74.0274 169.433 74.0274H120.166C117.501 74.0274 115.285 74.3983 113.528 75.1403C111.748 75.871 110.336 76.7759 109.302 77.8545C108.256 78.9318 107.43 80.1377 106.856 81.4835C106.282 82.8276 105.834 84.1735 105.524 85.5073L102.64 97.9946H155.101C156.697 97.9946 157.663 98.2731 158.006 98.7952C158.352 99.3401 158.247 100.755 157.719 103.027L152.862 123.979C152.149 127.065 150.53 128.619 148.003 128.619H95.543L83.8642 178.966C83.4848 180.578 83.0031 181.654 82.4167 182.189Z" fill="white"/>
</svg>
